<?xml version="1.0" encoding="utf-8" standalone="no"?>
<!DOCTYPE svg PUBLIC "-//W3C//DTD SVG 1.1//EN"
  "http://www.w3.org/Graphics/SVG/1.1/DTD/svg11.dtd">
<svg xmlns:xlink="http://www.w3.org/1999/xlink" width="843.492674pt" height="395.7pt" viewBox="0 0 843.492674 395.7" xmlns="http://www.w3.org/2000/svg" version="1.1">
 <metadata>
  <rdf:RDF xmlns:dc="http://purl.org/dc/elements/1.1/" xmlns:cc="http://creativecommons.org/ns#" xmlns:rdf="http://www.w3.org/1999/02/22-rdf-syntax-ns#">
   <cc:Work>
    <dc:type rdf:resource="http://purl.org/dc/dcmitype/StillImage"/>
    <dc:date>2025-11-24T15:49:19.559422</dc:date>
    <dc:format>image/svg+xml</dc:format>
    <dc:creator>
     <cc:Agent>
      <dc:title>Matplotlib v3.9.0, https://matplotlib.org/</dc:title>
     </cc:Agent>
    </dc:creator>
   </cc:Work>
  </rdf:RDF>
 </metadata>
 <defs>
  <style type="text/css">*{stroke-linejoin: round; stroke-linecap: butt}</style>
 </defs>
 <g id="figure_1">
  <g id="patch_1">
   <path d="M 0 395.7 
L 843.492674 395.7 
L 843.492674 0 
L 0 0 
L 0 395.7 
z
" style="fill: none"/>
  </g>
  <g id="axes_1">
   <g id="patch_2">
    <path d="M 55.092674 339.84 
L 410.183583 339.84 
L 410.183583 7.2 
L 55.092674 7.2 
L 55.092674 339.84 
z
" style="fill: none"/>
   </g>
   <g id="PolyCollection_1">
    <defs>
     <path id="meb0c5a0f71" d="M 71.233169 -71.099414 
L 71.233169 -71.099414 
L 111.584409 -71.588501 
L 185.36371 -77.915492 
L 280.904361 -100.26811 
L 394.043087 -76.185041 
L 394.043087 -373.38 
L 394.043087 -373.38 
L 280.904361 -207.925197 
L 185.36371 -117.129079 
L 111.584409 -76.52552 
L 71.233169 -71.099414 
z
" style="stroke: #00ffe5; stroke-opacity: 0.1"/>
    </defs>
    <g clip-path="url(#p2c3b0fc04f)">
     <use xlink:href="#meb0c5a0f71" x="0" y="395.7" style="fill: #00ffe5; fill-opacity: 0.1; stroke: #00ffe5; stroke-opacity: 0.1"/>
    </g>
   </g>
   <g id="PolyCollection_2">
    <defs>
     <path id="mc2ef3b1885" d="M 71.233169 -71.099414 
L 71.233169 -71.099414 
L 111.584409 -70.98 
L 185.36371 -74.087681 
L 280.904361 -82.686934 
L 394.043087 -87.824198 
L 394.043087 -178.664942 
L 394.043087 -178.664942 
L 280.904361 -120.945432 
L 185.36371 -87.349635 
L 111.584409 -74.132207 
L 71.233169 -71.099414 
z
" style="stroke: #e600ff; stroke-opacity: 0.1"/>
    </defs>
    <g clip-path="url(#p2c3b0fc04f)">
     <use xlink:href="#mc2ef3b1885" x="0" y="395.7" style="fill: #e600ff; fill-opacity: 0.1; stroke: #e600ff; stroke-opacity: 0.1"/>
    </g>
   </g>
   <g id="PolyCollection_3">
    <defs>
     <path id="md7a07b5c9f" d="M 71.233169 -71.099414 
L 71.233169 -71.099414 
L 111.584409 -71.548638 
L 185.36371 -72.275543 
L 280.904361 -78.837761 
L 394.043087 -81.138853 
L 394.043087 -138.043503 
L 394.043087 -138.043503 
L 280.904361 -102.074889 
L 185.36371 -82.327618 
L 111.584409 -73.995162 
L 71.233169 -71.099414 
z
" style="stroke: #ffe500; stroke-opacity: 0.1"/>
    </defs>
    <g clip-path="url(#p2c3b0fc04f)">
     <use xlink:href="#md7a07b5c9f" x="0" y="395.7" style="fill: #ffe500; fill-opacity: 0.1; stroke: #ffe500; stroke-opacity: 0.1"/>
    </g>
   </g>
   <g id="matplotlib.axis_1">
    <g id="xtick_1">
     <g id="line2d_1">
      <defs>
       <path id="m335168e6b6" d="M 0 0 
L 0 3.5 
" style="stroke: #000000; stroke-width: 0.8"/>
      </defs>
      <g>
       <use xlink:href="#m335168e6b6" x="71.233169" y="339.84" style="stroke: #000000; stroke-width: 0.8"/>
      </g>
     </g>
     <g id="text_1">
      <!-- $\mathdefault{0.0}$ -->
      <g transform="translate(61.884643 357.217725) scale(0.15 -0.15)">
       <defs>
        <path id="CMR17-30" d="M 2688 2025 
C 2688 2416 2682 3080 2413 3591 
C 2176 4039 1798 4198 1466 4198 
C 1158 4198 768 4058 525 3597 
C 269 3118 243 2524 243 2025 
C 243 1661 250 1106 448 619 
C 723 -39 1216 -128 1466 -128 
C 1760 -128 2208 -7 2470 600 
C 2662 1042 2688 1559 2688 2025 
z
M 1466 -26 
C 1056 -26 813 325 723 812 
C 653 1188 653 1738 653 2096 
C 653 2588 653 2997 736 3387 
C 858 3929 1216 4096 1466 4096 
C 1728 4096 2067 3923 2189 3400 
C 2272 3036 2278 2607 2278 2096 
C 2278 1680 2278 1169 2202 792 
C 2067 95 1690 -26 1466 -26 
z
" transform="scale(0.015625)"/>
        <path id="CMMI12-3a" d="M 1178 307 
C 1178 492 1024 619 870 619 
C 685 619 557 466 557 313 
C 557 128 710 0 864 0 
C 1050 0 1178 153 1178 307 
z
" transform="scale(0.015625)"/>
       </defs>
       <use xlink:href="#CMR17-30" transform="scale(0.996264)"/>
       <use xlink:href="#CMMI12-3a" transform="translate(45.690477 0) scale(0.996264)"/>
       <use xlink:href="#CMR17-30" transform="translate(72.787654 0) scale(0.996264)"/>
      </g>
     </g>
    </g>
    <g id="xtick_2">
     <g id="line2d_2">
      <g>
       <use xlink:href="#m335168e6b6" x="160.902591" y="339.84" style="stroke: #000000; stroke-width: 0.8"/>
      </g>
     </g>
     <g id="text_2">
      <!-- $\mathdefault{0.5}$ -->
      <g transform="translate(151.554065 357.217725) scale(0.15 -0.15)">
       <defs>
        <path id="CMR17-35" d="M 730 3692 
C 794 3666 1056 3584 1325 3584 
C 1920 3584 2246 3911 2432 4100 
C 2432 4157 2432 4192 2394 4192 
C 2387 4192 2374 4192 2323 4163 
C 2099 4058 1837 3973 1517 3973 
C 1325 3973 1037 3999 723 4139 
C 653 4171 640 4171 634 4171 
C 602 4171 595 4164 595 4037 
L 595 2203 
C 595 2089 595 2057 659 2057 
C 691 2057 704 2070 736 2114 
C 941 2401 1222 2522 1542 2522 
C 1766 2522 2246 2382 2246 1289 
C 2246 1085 2246 715 2054 421 
C 1894 159 1645 25 1370 25 
C 947 25 518 320 403 814 
C 429 807 480 795 506 795 
C 589 795 749 840 749 1038 
C 749 1210 627 1280 506 1280 
C 358 1280 262 1190 262 1011 
C 262 454 704 -128 1382 -128 
C 2042 -128 2669 440 2669 1264 
C 2669 2030 2170 2624 1549 2624 
C 1222 2624 947 2503 730 2274 
L 730 3692 
z
" transform="scale(0.015625)"/>
       </defs>
       <use xlink:href="#CMR17-30" transform="scale(0.996264)"/>
       <use xlink:href="#CMMI12-3a" transform="translate(45.690477 0) scale(0.996264)"/>
       <use xlink:href="#CMR17-35" transform="translate(72.787654 0) scale(0.996264)"/>
      </g>
     </g>
    </g>
    <g id="xtick_3">
     <g id="line2d_3">
      <g>
       <use xlink:href="#m335168e6b6" x="250.572012" y="339.84" style="stroke: #000000; stroke-width: 0.8"/>
      </g>
     </g>
     <g id="text_3">
      <!-- $\mathdefault{1.0}$ -->
      <g transform="translate(241.223486 357.217725) scale(0.15 -0.15)">
       <defs>
        <path id="CMR17-31" d="M 1702 4058 
C 1702 4192 1696 4192 1606 4192 
C 1357 3916 979 3827 621 3827 
C 602 3827 570 3827 563 3808 
C 557 3795 557 3782 557 3648 
C 755 3648 1088 3686 1344 3839 
L 1344 461 
C 1344 236 1331 160 781 160 
L 589 160 
L 589 0 
C 896 0 1216 0 1523 0 
C 1830 0 2150 0 2458 0 
L 2458 160 
L 2266 160 
C 1715 160 1702 230 1702 458 
L 1702 4058 
z
" transform="scale(0.015625)"/>
       </defs>
       <use xlink:href="#CMR17-31" transform="scale(0.996264)"/>
       <use xlink:href="#CMMI12-3a" transform="translate(45.690477 0) scale(0.996264)"/>
       <use xlink:href="#CMR17-30" transform="translate(72.787654 0) scale(0.996264)"/>
      </g>
     </g>
    </g>
    <g id="xtick_4">
     <g id="line2d_4">
      <g>
       <use xlink:href="#m335168e6b6" x="340.241434" y="339.84" style="stroke: #000000; stroke-width: 0.8"/>
      </g>
     </g>
     <g id="text_4">
      <!-- $\mathdefault{1.5}$ -->
      <g transform="translate(330.892908 357.217725) scale(0.15 -0.15)">
       <use xlink:href="#CMR17-31" transform="scale(0.996264)"/>
       <use xlink:href="#CMMI12-3a" transform="translate(45.690477 0) scale(0.996264)"/>
       <use xlink:href="#CMR17-35" transform="translate(72.787654 0) scale(0.996264)"/>
      </g>
     </g>
    </g>
    <g id="text_5">
     <!-- $\tilde{\gamma} t$ -->
     <g transform="translate(225.794765 374.501194) scale(0.15 -0.15)">
      <defs>
       <path id="CMR17-7e" d="M 2400 4184 
C 2182 3980 2061 3865 1862 3865 
C 1722 3865 1626 3932 1491 4024 
C 1363 4111 1261 4184 1120 4184 
C 890 4184 730 4004 461 3718 
L 531 3648 
C 749 3850 870 3968 1069 3968 
C 1210 3968 1306 3900 1440 3808 
C 1568 3722 1670 3648 1811 3648 
C 2042 3648 2202 3828 2470 4114 
L 2400 4184 
z
" transform="scale(0.015625)"/>
       <path id="CMMI12-d" d="M 2419 760 
C 2406 1071 2394 1561 2150 2133 
C 2022 2452 1805 2788 1338 2788 
C 550 2788 122 1790 122 1625 
C 122 1567 166 1567 186 1567 
C 243 1567 243 1580 275 1663 
C 410 2057 819 2368 1261 2368 
C 2150 2368 2278 1383 2278 754 
C 2278 352 2234 220 2195 92 
C 2074 -302 1862 -1090 1862 -1268 
C 1862 -1319 1882 -1376 1933 -1376 
C 2029 -1376 2086 -1166 2157 -912 
C 2310 -353 2349 -73 2381 181 
C 2400 334 2765 1384 3270 2382 
C 3315 2483 3405 2655 3405 2674 
C 3405 2680 3398 2725 3341 2725 
C 3328 2725 3296 2725 3283 2699 
C 3270 2687 3046 2254 2854 1822 
C 2758 1606 2630 1320 2419 760 
z
" transform="scale(0.015625)"/>
       <path id="CMMI12-74" d="M 1286 2566 
L 1875 2566 
C 1997 2566 2061 2566 2061 2681 
C 2061 2752 2022 2752 1894 2752 
L 1331 2752 
L 1568 3692 
C 1594 3781 1594 3794 1594 3840 
C 1594 3943 1510 4000 1427 4000 
C 1376 4000 1229 3981 1178 3775 
L 928 2752 
L 326 2752 
C 198 2752 141 2752 141 2630 
C 141 2566 186 2566 307 2566 
L 877 2566 
L 454 881 
C 403 658 384 594 384 511 
C 384 211 595 -64 954 -64 
C 1600 -64 1946 868 1946 912 
C 1946 951 1920 970 1882 970 
C 1869 970 1843 970 1830 944 
C 1824 938 1818 931 1773 829 
C 1638 511 1344 64 973 64 
C 781 64 768 224 768 364 
C 768 370 768 492 787 568 
L 1286 2566 
z
" transform="scale(0.015625)"/>
      </defs>
      <use xlink:href="#CMR17-7e" transform="translate(5.164045 0.006461) scale(0.996264)"/>
      <use xlink:href="#CMMI12-d" transform="scale(0.996264)"/>
      <use xlink:href="#CMMI12-74" transform="translate(56.018568 0) scale(0.996264)"/>
     </g>
    </g>
   </g>
   <g id="matplotlib.axis_2">
    <g id="ytick_1">
     <g id="line2d_5">
      <defs>
       <path id="mc6a2aa2465" d="M 0 0 
L -3.5 0 
" style="stroke: #000000; stroke-width: 0.8"/>
      </defs>
      <g>
       <use xlink:href="#mc6a2aa2465" x="55.092674" y="324.600586" style="stroke: #000000; stroke-width: 0.8"/>
      </g>
     </g>
     <g id="text_6">
      <!-- $\mathdefault{0}$ -->
      <g transform="translate(40.776436 329.789448) scale(0.15 -0.15)">
       <use xlink:href="#CMR17-30" transform="scale(0.996264)"/>
      </g>
     </g>
    </g>
    <g id="ytick_2">
     <g id="line2d_6">
      <g>
       <use xlink:href="#mc6a2aa2465" x="55.092674" y="281.365039" style="stroke: #000000; stroke-width: 0.8"/>
      </g>
     </g>
     <g id="text_7">
      <!-- $\mathdefault{25}$ -->
      <g transform="translate(33.460198 286.553901) scale(0.15 -0.15)">
       <defs>
        <path id="CMR17-32" d="M 2669 989 
L 2554 989 
C 2490 536 2438 459 2413 420 
C 2381 369 1920 369 1830 369 
L 602 369 
C 832 619 1280 1072 1824 1597 
C 2214 1967 2669 2402 2669 3035 
C 2669 3790 2067 4224 1395 4224 
C 691 4224 262 3604 262 3030 
C 262 2780 448 2748 525 2748 
C 589 2748 781 2787 781 3010 
C 781 3207 614 3264 525 3264 
C 486 3264 448 3258 422 3245 
C 544 3790 915 4058 1306 4058 
C 1862 4058 2227 3617 2227 3035 
C 2227 2479 1901 2000 1536 1584 
L 262 146 
L 262 0 
L 2515 0 
L 2669 989 
z
" transform="scale(0.015625)"/>
       </defs>
       <use xlink:href="#CMR17-32" transform="scale(0.996264)"/>
       <use xlink:href="#CMR17-35" transform="translate(45.690477 0) scale(0.996264)"/>
      </g>
     </g>
    </g>
    <g id="ytick_3">
     <g id="line2d_7">
      <g>
       <use xlink:href="#mc6a2aa2465" x="55.092674" y="238.129492" style="stroke: #000000; stroke-width: 0.8"/>
      </g>
     </g>
     <g id="text_8">
      <!-- $\mathdefault{50}$ -->
      <g transform="translate(33.460198 243.318354) scale(0.15 -0.15)">
       <use xlink:href="#CMR17-35" transform="scale(0.996264)"/>
       <use xlink:href="#CMR17-30" transform="translate(45.690477 0) scale(0.996264)"/>
      </g>
     </g>
    </g>
    <g id="ytick_4">
     <g id="line2d_8">
      <g>
       <use xlink:href="#mc6a2aa2465" x="55.092674" y="194.893945" style="stroke: #000000; stroke-width: 0.8"/>
      </g>
     </g>
     <g id="text_9">
      <!-- $\mathdefault{75}$ -->
      <g transform="translate(33.460198 200.082807) scale(0.15 -0.15)">
       <defs>
        <path id="CMR17-37" d="M 2886 3941 
L 2886 4081 
L 1382 4081 
C 634 4081 621 4165 595 4288 
L 480 4288 
L 294 3094 
L 410 3094 
C 429 3215 474 3540 550 3661 
C 589 3712 1062 3712 1171 3712 
L 2579 3712 
L 1869 2661 
C 1395 1954 1069 999 1069 165 
C 1069 89 1069 -128 1299 -128 
C 1530 -128 1530 89 1530 171 
L 1530 465 
C 1530 1508 1709 2196 2003 2636 
L 2886 3941 
z
" transform="scale(0.015625)"/>
       </defs>
       <use xlink:href="#CMR17-37" transform="scale(0.996264)"/>
       <use xlink:href="#CMR17-35" transform="translate(45.690477 0) scale(0.996264)"/>
      </g>
     </g>
    </g>
    <g id="ytick_5">
     <g id="line2d_9">
      <g>
       <use xlink:href="#mc6a2aa2465" x="55.092674" y="151.658398" style="stroke: #000000; stroke-width: 0.8"/>
      </g>
     </g>
     <g id="text_10">
      <!-- $\mathdefault{100}$ -->
      <g transform="translate(26.14396 156.84726) scale(0.15 -0.15)">
       <use xlink:href="#CMR17-31" transform="scale(0.996264)"/>
       <use xlink:href="#CMR17-30" transform="translate(45.690477 0) scale(0.996264)"/>
       <use xlink:href="#CMR17-30" transform="translate(91.380954 0) scale(0.996264)"/>
      </g>
     </g>
    </g>
    <g id="ytick_6">
     <g id="line2d_10">
      <g>
       <use xlink:href="#mc6a2aa2465" x="55.092674" y="108.422851" style="stroke: #000000; stroke-width: 0.8"/>
      </g>
     </g>
     <g id="text_11">
      <!-- $\mathdefault{125}$ -->
      <g transform="translate(26.14396 113.611714) scale(0.15 -0.15)">
       <use xlink:href="#CMR17-31" transform="scale(0.996264)"/>
       <use xlink:href="#CMR17-32" transform="translate(45.690477 0) scale(0.996264)"/>
       <use xlink:href="#CMR17-35" transform="translate(91.380954 0) scale(0.996264)"/>
      </g>
     </g>
    </g>
    <g id="ytick_7">
     <g id="line2d_11">
      <g>
       <use xlink:href="#mc6a2aa2465" x="55.092674" y="65.187304" style="stroke: #000000; stroke-width: 0.8"/>
      </g>
     </g>
     <g id="text_12">
      <!-- $\mathdefault{150}$ -->
      <g transform="translate(26.14396 70.376167) scale(0.15 -0.15)">
       <use xlink:href="#CMR17-31" transform="scale(0.996264)"/>
       <use xlink:href="#CMR17-35" transform="translate(45.690477 0) scale(0.996264)"/>
       <use xlink:href="#CMR17-30" transform="translate(91.380954 0) scale(0.996264)"/>
      </g>
     </g>
    </g>
    <g id="ytick_8">
     <g id="line2d_12">
      <g>
       <use xlink:href="#mc6a2aa2465" x="55.092674" y="21.951757" style="stroke: #000000; stroke-width: 0.8"/>
      </g>
     </g>
     <g id="text_13">
      <!-- $\mathdefault{175}$ -->
      <g transform="translate(26.14396 27.14062) scale(0.15 -0.15)">
       <use xlink:href="#CMR17-31" transform="scale(0.996264)"/>
       <use xlink:href="#CMR17-37" transform="translate(45.690477 0) scale(0.996264)"/>
       <use xlink:href="#CMR17-35" transform="translate(91.380954 0) scale(0.996264)"/>
      </g>
     </g>
    </g>
    <g id="text_14">
     <!-- $ \bar{\varepsilon} (\%) $ -->
     <g transform="translate(18.40797 188.731033) rotate(-90) scale(0.15 -0.15)">
      <defs>
       <path id="CMR17-16" d="M 2554 3520 
L 2554 3666 
L 378 3666 
L 378 3520 
L 2554 3520 
z
" transform="scale(0.015625)"/>
       <path id="CMMI12-22" d="M 890 1427 
C 1094 1345 1312 1345 1434 1345 
C 1600 1345 1933 1345 1933 1550 
C 1933 1678 1811 1728 1485 1728 
C 1325 1728 1133 1709 909 1613 
C 710 1708 634 1852 634 1990 
C 634 2379 1261 2606 1830 2606 
C 1939 2606 2170 2606 2438 2411 
C 2477 2387 2496 2367 2541 2367 
C 2618 2367 2701 2449 2701 2526 
C 2701 2639 2330 2880 1888 2880 
C 1171 2880 493 2449 493 1972 
C 493 1734 646 1586 755 1509 
C 384 1301 166 961 166 652 
C 166 219 563 -128 1178 -128 
C 2022 -128 2362 424 2362 512 
C 2362 543 2336 568 2304 568 
C 2272 568 2259 549 2234 512 
C 2163 395 1997 146 1235 146 
C 838 146 314 245 314 686 
C 314 898 474 1214 890 1427 
z
M 1088 1518 
C 1261 1600 1427 1600 1472 1600 
C 1651 1600 1683 1583 1786 1545 
C 1677 1472 1664 1472 1434 1472 
C 1318 1472 1216 1472 1088 1518 
z
" transform="scale(0.015625)"/>
       <path id="CMR17-28" d="M 1958 -1561 
C 1958 -1555 1958 -1542 1939 -1523 
C 1645 -1224 858 -407 858 1581 
C 858 3569 1632 4379 1946 4697 
C 1946 4704 1958 4717 1958 4736 
C 1958 4755 1939 4768 1914 4768 
C 1843 4768 1299 4296 986 3594 
C 666 2887 576 2199 576 1588 
C 576 1128 621 351 1005 -471 
C 1312 -1135 1837 -1600 1914 -1600 
C 1946 -1600 1958 -1587 1958 -1561 
z
" transform="scale(0.015625)"/>
       <path id="CMR17-25" d="M 4640 959 
C 4640 1698 4275 2240 3846 2240 
C 3411 2240 2970 1736 2970 959 
C 2970 183 3405 -320 3846 -320 
C 4275 -320 4640 215 4640 959 
z
M 3853 -218 
C 3686 -218 3270 -66 3270 959 
C 3270 1991 3686 2138 3853 2138 
C 4205 2138 4525 1634 4525 959 
C 4525 285 4205 -218 3853 -218 
z
M 4083 4577 
C 4128 4647 4134 4653 4134 4685 
C 4134 4761 4077 4800 4026 4800 
C 3962 4800 3936 4756 3891 4706 
C 3520 4190 3008 4134 2746 4134 
C 2106 4134 1715 4494 1594 4607 
C 1510 4682 1389 4800 1171 4800 
C 736 4800 294 4296 294 3519 
C 294 2743 730 2240 1171 2240 
C 1600 2240 1965 2778 1965 3527 
C 1965 3969 1830 4270 1811 4308 
C 2202 4064 2586 4032 2752 4032 
C 3162 4032 3456 4183 3616 4289 
L 3622 4283 
L 858 -84 
C 800 -174 800 -187 800 -206 
C 800 -276 858 -320 915 -320 
C 973 -320 992 -289 1037 -218 
L 4083 4577 
z
M 1178 2342 
C 1011 2342 595 2494 595 3519 
C 595 4551 1011 4698 1178 4698 
C 1530 4698 1850 4194 1850 3519 
C 1850 2845 1530 2342 1178 2342 
z
" transform="scale(0.015625)"/>
       <path id="CMR17-29" d="M 1683 1581 
C 1683 2040 1638 2817 1254 3639 
C 947 4303 422 4768 346 4768 
C 326 4768 301 4761 301 4729 
C 301 4717 307 4710 314 4697 
C 621 4378 1402 3568 1402 1584 
C 1402 -407 627 -1217 314 -1537 
C 307 -1549 301 -1556 301 -1568 
C 301 -1600 326 -1600 346 -1600 
C 416 -1600 960 -1128 1274 -426 
C 1594 281 1683 969 1683 1581 
z
" transform="scale(0.015625)"/>
      </defs>
      <use xlink:href="#CMR17-16" transform="translate(8.109011 0.006461) scale(0.996264)"/>
      <use xlink:href="#CMMI12-22" transform="scale(0.996264)"/>
      <use xlink:href="#CMR17-28" transform="translate(45.650192 0) scale(0.996264)"/>
      <use xlink:href="#CMR17-25" transform="translate(80.93096 0) scale(0.996264)"/>
      <use xlink:href="#CMR17-29" transform="translate(157.85055 0) scale(0.996264)"/>
     </g>
    </g>
   </g>
   <g id="line2d_13">
    <path d="M 71.233169 324.600586 
L 111.584409 321.642989 
L 185.36371 298.177714 
L 280.904361 241.603346 
L 394.043087 170.91748 
" clip-path="url(#p2c3b0fc04f)" style="fill: none; stroke: #00ffe5; stroke-width: 1.5; stroke-linecap: square"/>
    <defs>
     <path id="mf72e6ba78f" d="M -3 3 
L 3 3 
L 3 -3 
L -3 -3 
z
" style="stroke: #00ffe5; stroke-linejoin: miter"/>
    </defs>
    <g clip-path="url(#p2c3b0fc04f)">
     <use xlink:href="#mf72e6ba78f" x="71.233169" y="324.600586" style="fill: #00ffe5; stroke: #00ffe5; stroke-linejoin: miter"/>
     <use xlink:href="#mf72e6ba78f" x="111.584409" y="321.642989" style="fill: #00ffe5; stroke: #00ffe5; stroke-linejoin: miter"/>
     <use xlink:href="#mf72e6ba78f" x="185.36371" y="298.177714" style="fill: #00ffe5; stroke: #00ffe5; stroke-linejoin: miter"/>
     <use xlink:href="#mf72e6ba78f" x="280.904361" y="241.603346" style="fill: #00ffe5; stroke: #00ffe5; stroke-linejoin: miter"/>
     <use xlink:href="#mf72e6ba78f" x="394.043087" y="170.91748" style="fill: #00ffe5; stroke: #00ffe5; stroke-linejoin: miter"/>
    </g>
   </g>
   <g id="line2d_14">
    <path d="M 71.233169 324.600586 
L 111.584409 323.143897 
L 185.36371 314.981342 
L 280.904361 293.883817 
L 394.043087 262.45543 
" clip-path="url(#p2c3b0fc04f)" style="fill: none; stroke: #e600ff; stroke-width: 1.5; stroke-linecap: square"/>
    <defs>
     <path id="m29c4a29633" d="M -3 3 
L 3 3 
L 3 -3 
L -3 -3 
z
" style="stroke: #e600ff; stroke-linejoin: miter"/>
    </defs>
    <g clip-path="url(#p2c3b0fc04f)">
     <use xlink:href="#m29c4a29633" x="71.233169" y="324.600586" style="fill: #e600ff; stroke: #e600ff; stroke-linejoin: miter"/>
     <use xlink:href="#m29c4a29633" x="111.584409" y="323.143897" style="fill: #e600ff; stroke: #e600ff; stroke-linejoin: miter"/>
     <use xlink:href="#m29c4a29633" x="185.36371" y="314.981342" style="fill: #e600ff; stroke: #e600ff; stroke-linejoin: miter"/>
     <use xlink:href="#m29c4a29633" x="280.904361" y="293.883817" style="fill: #e600ff; stroke: #e600ff; stroke-linejoin: miter"/>
     <use xlink:href="#m29c4a29633" x="394.043087" y="262.45543" style="fill: #e600ff; stroke: #e600ff; stroke-linejoin: miter"/>
    </g>
   </g>
   <g id="line2d_15">
    <path d="M 71.233169 324.600586 
L 111.584409 322.9281 
L 185.36371 318.398419 
L 280.904361 305.243675 
L 394.043087 286.108822 
" clip-path="url(#p2c3b0fc04f)" style="fill: none; stroke: #ffe500; stroke-width: 1.5; stroke-linecap: square"/>
    <defs>
     <path id="m4caf320352" d="M -3 3 
L 3 3 
L 3 -3 
L -3 -3 
z
" style="stroke: #ffe500; stroke-linejoin: miter"/>
    </defs>
    <g clip-path="url(#p2c3b0fc04f)">
     <use xlink:href="#m4caf320352" x="71.233169" y="324.600586" style="fill: #ffe500; stroke: #ffe500; stroke-linejoin: miter"/>
     <use xlink:href="#m4caf320352" x="111.584409" y="322.9281" style="fill: #ffe500; stroke: #ffe500; stroke-linejoin: miter"/>
     <use xlink:href="#m4caf320352" x="185.36371" y="318.398419" style="fill: #ffe500; stroke: #ffe500; stroke-linejoin: miter"/>
     <use xlink:href="#m4caf320352" x="280.904361" y="305.243675" style="fill: #ffe500; stroke: #ffe500; stroke-linejoin: miter"/>
     <use xlink:href="#m4caf320352" x="394.043087" y="286.108822" style="fill: #ffe500; stroke: #ffe500; stroke-linejoin: miter"/>
    </g>
   </g>
   <g id="patch_3">
    <path d="M 55.092674 339.84 
L 55.092674 7.2 
" style="fill: none; stroke: #000000; stroke-width: 0.8; stroke-linejoin: miter; stroke-linecap: square"/>
   </g>
   <g id="patch_4">
    <path d="M 410.183583 339.84 
L 410.183583 7.2 
" style="fill: none; stroke: #000000; stroke-width: 0.8; stroke-linejoin: miter; stroke-linecap: square"/>
   </g>
   <g id="patch_5">
    <path d="M 55.092674 339.84 
L 410.183583 339.84 
" style="fill: none; stroke: #000000; stroke-width: 0.8; stroke-linejoin: miter; stroke-linecap: square"/>
   </g>
   <g id="patch_6">
    <path d="M 55.092674 7.2 
L 410.183583 7.2 
" style="fill: none; stroke: #000000; stroke-width: 0.8; stroke-linejoin: miter; stroke-linecap: square"/>
   </g>
  </g>
  <g id="axes_2">
   <g id="patch_7">
    <path d="M 481.201765 339.84 
L 836.292674 339.84 
L 836.292674 7.2 
L 481.201765 7.2 
L 481.201765 339.84 
z
" style="fill: none"/>
   </g>
   <g id="PolyCollection_4">
    <defs>
     <path id="mb45577efbf" d="M 497.34226 -71.127944 
L 497.34226 -71.127944 
L 537.6935 -71.621513 
L 611.472801 -78.028692 
L 707.013452 -100.184574 
L 820.152178 -92.774213 
L 820.152178 -373.38 
L 820.152178 -373.38 
L 707.013452 -239.870102 
L 611.472801 -137.11419 
L 537.6935 -79.192566 
L 497.34226 -71.127944 
z
" style="stroke: #00ffe5; stroke-opacity: 0.1"/>
    </defs>
    <g clip-path="url(#p4fa21cc7fd)">
     <use xlink:href="#mb45577efbf" x="0" y="395.7" style="fill: #00ffe5; fill-opacity: 0.1; stroke: #00ffe5; stroke-opacity: 0.1"/>
    </g>
   </g>
   <g id="PolyCollection_5">
    <defs>
     <path id="m3d5fdb7f93" d="M 497.34226 -71.127944 
L 497.34226 -71.127944 
L 537.6935 -70.98 
L 611.472801 -71.978225 
L 707.013452 -76.963098 
L 820.152178 -91.470005 
L 820.152178 -183.733628 
L 820.152178 -183.733628 
L 707.013452 -143.017372 
L 611.472801 -96.948209 
L 537.6935 -75.071104 
L 497.34226 -71.127944 
z
" style="stroke: #e600ff; stroke-opacity: 0.1"/>
    </defs>
    <g clip-path="url(#p4fa21cc7fd)">
     <use xlink:href="#m3d5fdb7f93" x="0" y="395.7" style="fill: #e600ff; fill-opacity: 0.1; stroke: #e600ff; stroke-opacity: 0.1"/>
    </g>
   </g>
   <g id="PolyCollection_6">
    <defs>
     <path id="m6deee35b81" d="M 497.34226 -71.127944 
L 497.34226 -71.127944 
L 537.6935 -71.503631 
L 611.472801 -71.244482 
L 707.013452 -74.321637 
L 820.152178 -81.410557 
L 820.152178 -146.213285 
L 820.152178 -146.213285 
L 707.013452 -118.282519 
L 611.472801 -89.135357 
L 537.6935 -75.616223 
L 497.34226 -71.127944 
z
" style="stroke: #ffe500; stroke-opacity: 0.1"/>
    </defs>
    <g clip-path="url(#p4fa21cc7fd)">
     <use xlink:href="#m6deee35b81" x="0" y="395.7" style="fill: #ffe500; fill-opacity: 0.1; stroke: #ffe500; stroke-opacity: 0.1"/>
    </g>
   </g>
   <g id="matplotlib.axis_3">
    <g id="xtick_5">
     <g id="line2d_16">
      <g>
       <use xlink:href="#m335168e6b6" x="497.34226" y="339.84" style="stroke: #000000; stroke-width: 0.8"/>
      </g>
     </g>
     <g id="text_15">
      <!-- $\mathdefault{0.0}$ -->
      <g transform="translate(487.993734 357.217725) scale(0.15 -0.15)">
       <use xlink:href="#CMR17-30" transform="scale(0.996264)"/>
       <use xlink:href="#CMMI12-3a" transform="translate(45.690477 0) scale(0.996264)"/>
       <use xlink:href="#CMR17-30" transform="translate(72.787654 0) scale(0.996264)"/>
      </g>
     </g>
    </g>
    <g id="xtick_6">
     <g id="line2d_17">
      <g>
       <use xlink:href="#m335168e6b6" x="587.011682" y="339.84" style="stroke: #000000; stroke-width: 0.8"/>
      </g>
     </g>
     <g id="text_16">
      <!-- $\mathdefault{0.5}$ -->
      <g transform="translate(577.663156 357.217725) scale(0.15 -0.15)">
       <use xlink:href="#CMR17-30" transform="scale(0.996264)"/>
       <use xlink:href="#CMMI12-3a" transform="translate(45.690477 0) scale(0.996264)"/>
       <use xlink:href="#CMR17-35" transform="translate(72.787654 0) scale(0.996264)"/>
      </g>
     </g>
    </g>
    <g id="xtick_7">
     <g id="line2d_18">
      <g>
       <use xlink:href="#m335168e6b6" x="676.681103" y="339.84" style="stroke: #000000; stroke-width: 0.8"/>
      </g>
     </g>
     <g id="text_17">
      <!-- $\mathdefault{1.0}$ -->
      <g transform="translate(667.332577 357.217725) scale(0.15 -0.15)">
       <use xlink:href="#CMR17-31" transform="scale(0.996264)"/>
       <use xlink:href="#CMMI12-3a" transform="translate(45.690477 0) scale(0.996264)"/>
       <use xlink:href="#CMR17-30" transform="translate(72.787654 0) scale(0.996264)"/>
      </g>
     </g>
    </g>
    <g id="xtick_8">
     <g id="line2d_19">
      <g>
       <use xlink:href="#m335168e6b6" x="766.350525" y="339.84" style="stroke: #000000; stroke-width: 0.8"/>
      </g>
     </g>
     <g id="text_18">
      <!-- $\mathdefault{1.5}$ -->
      <g transform="translate(757.001999 357.217725) scale(0.15 -0.15)">
       <use xlink:href="#CMR17-31" transform="scale(0.996264)"/>
       <use xlink:href="#CMMI12-3a" transform="translate(45.690477 0) scale(0.996264)"/>
       <use xlink:href="#CMR17-35" transform="translate(72.787654 0) scale(0.996264)"/>
      </g>
     </g>
    </g>
    <g id="text_19">
     <!-- $\tilde{\gamma} t$ -->
     <g transform="translate(651.903855 374.501194) scale(0.15 -0.15)">
      <use xlink:href="#CMR17-7e" transform="translate(5.164045 0.006461) scale(0.996264)"/>
      <use xlink:href="#CMMI12-d" transform="scale(0.996264)"/>
      <use xlink:href="#CMMI12-74" transform="translate(56.018568 0) scale(0.996264)"/>
     </g>
    </g>
   </g>
   <g id="matplotlib.axis_4">
    <g id="ytick_9">
     <g id="line2d_20">
      <g>
       <use xlink:href="#mc6a2aa2465" x="481.201765" y="324.572056" style="stroke: #000000; stroke-width: 0.8"/>
      </g>
     </g>
     <g id="text_20">
      <!-- $\mathdefault{0.00}$ -->
      <g transform="translate(448.188474 329.760918) scale(0.15 -0.15)">
       <use xlink:href="#CMR17-30" transform="scale(0.996264)"/>
       <use xlink:href="#CMMI12-3a" transform="translate(45.690477 0) scale(0.996264)"/>
       <use xlink:href="#CMR17-30" transform="translate(72.787654 0) scale(0.996264)"/>
       <use xlink:href="#CMR17-30" transform="translate(118.478131 0) scale(0.996264)"/>
      </g>
     </g>
    </g>
    <g id="ytick_10">
     <g id="line2d_21">
      <g>
       <use xlink:href="#mc6a2aa2465" x="481.201765" y="270.82502" style="stroke: #000000; stroke-width: 0.8"/>
      </g>
     </g>
     <g id="text_21">
      <!-- $\mathdefault{0.02}$ -->
      <g transform="translate(448.188474 276.013882) scale(0.15 -0.15)">
       <use xlink:href="#CMR17-30" transform="scale(0.996264)"/>
       <use xlink:href="#CMMI12-3a" transform="translate(45.690477 0) scale(0.996264)"/>
       <use xlink:href="#CMR17-30" transform="translate(72.787654 0) scale(0.996264)"/>
       <use xlink:href="#CMR17-32" transform="translate(118.478131 0) scale(0.996264)"/>
      </g>
     </g>
    </g>
    <g id="ytick_11">
     <g id="line2d_22">
      <g>
       <use xlink:href="#mc6a2aa2465" x="481.201765" y="217.077983" style="stroke: #000000; stroke-width: 0.8"/>
      </g>
     </g>
     <g id="text_22">
      <!-- $\mathdefault{0.04}$ -->
      <g transform="translate(448.188474 222.266846) scale(0.15 -0.15)">
       <defs>
        <path id="CMR17-34" d="M 2150 4122 
C 2150 4256 2144 4256 2029 4256 
L 128 1254 
L 128 1088 
L 1779 1088 
L 1779 457 
C 1779 224 1766 160 1318 160 
L 1197 160 
L 1197 0 
C 1402 0 1747 0 1965 0 
C 2182 0 2528 0 2733 0 
L 2733 160 
L 2611 160 
C 2163 160 2150 224 2150 457 
L 2150 1088 
L 2803 1088 
L 2803 1254 
L 2150 1254 
L 2150 4122 
z
M 1798 3703 
L 1798 1254 
L 256 1254 
L 1798 3703 
z
" transform="scale(0.015625)"/>
       </defs>
       <use xlink:href="#CMR17-30" transform="scale(0.996264)"/>
       <use xlink:href="#CMMI12-3a" transform="translate(45.690477 0) scale(0.996264)"/>
       <use xlink:href="#CMR17-30" transform="translate(72.787654 0) scale(0.996264)"/>
       <use xlink:href="#CMR17-34" transform="translate(118.478131 0) scale(0.996264)"/>
      </g>
     </g>
    </g>
    <g id="ytick_12">
     <g id="line2d_23">
      <g>
       <use xlink:href="#mc6a2aa2465" x="481.201765" y="163.330947" style="stroke: #000000; stroke-width: 0.8"/>
      </g>
     </g>
     <g id="text_23">
      <!-- $\mathdefault{0.06}$ -->
      <g transform="translate(448.188474 168.519809) scale(0.15 -0.15)">
       <defs>
        <path id="CMR17-36" d="M 678 2176 
C 678 3690 1395 4032 1811 4032 
C 1946 4032 2272 4009 2400 3776 
C 2298 3776 2106 3776 2106 3553 
C 2106 3381 2246 3323 2336 3323 
C 2394 3323 2566 3348 2566 3560 
C 2566 3954 2246 4179 1805 4179 
C 1043 4179 243 3390 243 1984 
C 243 253 966 -128 1478 -128 
C 2099 -128 2688 427 2688 1283 
C 2688 2081 2170 2662 1517 2662 
C 1126 2662 838 2407 678 1960 
L 678 2176 
z
M 1478 25 
C 691 25 691 1200 691 1436 
C 691 1896 909 2560 1504 2560 
C 1613 2560 1926 2560 2138 2120 
C 2253 1870 2253 1609 2253 1289 
C 2253 944 2253 690 2118 434 
C 1978 171 1773 25 1478 25 
z
" transform="scale(0.015625)"/>
       </defs>
       <use xlink:href="#CMR17-30" transform="scale(0.996264)"/>
       <use xlink:href="#CMMI12-3a" transform="translate(45.690477 0) scale(0.996264)"/>
       <use xlink:href="#CMR17-30" transform="translate(72.787654 0) scale(0.996264)"/>
       <use xlink:href="#CMR17-36" transform="translate(118.478131 0) scale(0.996264)"/>
      </g>
     </g>
    </g>
    <g id="ytick_13">
     <g id="line2d_24">
      <g>
       <use xlink:href="#mc6a2aa2465" x="481.201765" y="109.583911" style="stroke: #000000; stroke-width: 0.8"/>
      </g>
     </g>
     <g id="text_24">
      <!-- $\mathdefault{0.08}$ -->
      <g transform="translate(448.188474 114.772773) scale(0.15 -0.15)">
       <defs>
        <path id="CMR17-38" d="M 1741 2264 
C 2144 2467 2554 2773 2554 3263 
C 2554 3841 1990 4179 1472 4179 
C 890 4179 378 3759 378 3180 
C 378 3021 416 2747 666 2505 
C 730 2442 998 2251 1171 2130 
C 883 1983 211 1634 211 934 
C 211 279 838 -128 1459 -128 
C 2144 -128 2720 362 2720 1010 
C 2720 1590 2330 1857 2074 2029 
L 1741 2264 
z
M 902 2822 
C 851 2854 595 3051 595 3351 
C 595 3739 998 4032 1459 4032 
C 1965 4032 2336 3676 2336 3262 
C 2336 2669 1670 2331 1638 2331 
C 1632 2331 1626 2331 1574 2370 
L 902 2822 
z
M 2080 1519 
C 2176 1449 2483 1240 2483 851 
C 2483 381 2010 25 1472 25 
C 890 25 448 438 448 940 
C 448 1443 838 1862 1280 2060 
L 2080 1519 
z
" transform="scale(0.015625)"/>
       </defs>
       <use xlink:href="#CMR17-30" transform="scale(0.996264)"/>
       <use xlink:href="#CMMI12-3a" transform="translate(45.690477 0) scale(0.996264)"/>
       <use xlink:href="#CMR17-30" transform="translate(72.787654 0) scale(0.996264)"/>
       <use xlink:href="#CMR17-38" transform="translate(118.478131 0) scale(0.996264)"/>
      </g>
     </g>
    </g>
    <g id="ytick_14">
     <g id="line2d_25">
      <g>
       <use xlink:href="#mc6a2aa2465" x="481.201765" y="55.836874" style="stroke: #000000; stroke-width: 0.8"/>
      </g>
     </g>
     <g id="text_25">
      <!-- $\mathdefault{0.10}$ -->
      <g transform="translate(448.188474 61.025737) scale(0.15 -0.15)">
       <use xlink:href="#CMR17-30" transform="scale(0.996264)"/>
       <use xlink:href="#CMMI12-3a" transform="translate(45.690477 0) scale(0.996264)"/>
       <use xlink:href="#CMR17-31" transform="translate(72.787654 0) scale(0.996264)"/>
       <use xlink:href="#CMR17-30" transform="translate(118.478131 0) scale(0.996264)"/>
      </g>
     </g>
    </g>
    <g id="text_26">
     <!-- $ \bar{\Delta} \left&lt; \sigma^{\dagger} \sigma \right&gt; = \frac{1}{n_g} \sum_{i=0}^{n_g} \left| \left&lt; \sigma^{\dagger}_i \sigma_i \right&gt;_{exact} (t) - \left&lt; \sigma^{\dagger}_i \sigma_i \right&gt;_{QC} (k, t)  \right| $ -->
     <g transform="translate(429.99153 341.473191) rotate(-90) scale(0.15 -0.15)">
      <defs>
       <path id="CMR17-1" d="M 2598 4403 
C 2547 4512 2522 4512 2470 4512 
C 2394 4512 2387 4499 2342 4409 
L 269 109 
C 262 96 237 38 237 32 
C 237 6 243 0 358 0 
L 4576 0 
C 4691 0 4698 6 4698 32 
C 4698 38 4672 96 4666 109 
L 2598 4403 
z
M 2310 4038 
L 4083 358 
L 531 358 
L 2310 4038 
z
" transform="scale(0.015625)"/>
       <path id="CMEX10-a" d="M 2246 -7283 
C 2291 -7386 2310 -7424 2387 -7424 
C 2458 -7424 2515 -7366 2515 -7296 
C 2515 -7290 2515 -7258 2477 -7174 
L 896 -3584 
L 2477 6 
C 2515 90 2515 122 2515 128 
C 2515 198 2458 256 2387 256 
C 2304 256 2285 205 2246 122 
L 666 -3462 
C 627 -3546 627 -3578 627 -3584 
C 627 -3590 627 -3622 666 -3706 
L 2246 -7283 
z
" transform="scale(0.015625)"/>
       <path id="CMMI12-1b" d="M 3251 2408 
C 3334 2408 3546 2408 3546 2612 
C 3546 2752 3424 2752 3309 2752 
L 1894 2752 
C 934 2752 243 1686 243 932 
C 243 390 595 -64 1171 -64 
C 1926 -64 2752 747 2752 1705 
C 2752 1954 2694 2196 2541 2408 
L 3251 2408 
z
M 1178 64 
C 851 64 614 313 614 754 
C 614 1137 845 2408 1786 2408 
C 2061 2408 2368 2274 2368 1781 
C 2368 1558 2266 1021 2042 652 
C 1811 275 1466 64 1178 64 
z
" transform="scale(0.015625)"/>
       <path id="CMSY10-79" d="M 1485 2720 
C 1574 2707 1632 2707 1779 2664 
C 1914 2628 2112 2579 2246 2579 
C 2451 2579 2483 2732 2483 2790 
C 2483 2880 2432 3008 2246 3008 
C 2195 3008 2074 2995 1869 2936 
C 1645 2877 1581 2870 1485 2857 
C 1485 2966 1491 3139 1555 3522 
C 1587 3758 1632 4046 1632 4275 
C 1632 4333 1632 4544 1421 4544 
C 1203 4544 1203 4339 1203 4275 
C 1203 4052 1261 3663 1286 3490 
C 1344 3113 1350 2979 1350 2857 
C 1261 2870 1203 2870 1056 2916 
C 922 2955 723 3008 589 3008 
C 384 3008 352 2854 352 2796 
C 352 2707 403 2579 589 2579 
C 640 2579 762 2591 966 2646 
C 1190 2702 1254 2708 1350 2720 
C 1344 2586 1338 2515 1274 2181 
C 1203 1809 1203 1732 1203 1425 
C 1203 412 1280 -672 1331 -1229 
C 1338 -1319 1344 -1357 1414 -1357 
C 1491 -1357 1491 -1325 1504 -1242 
C 1536 -947 1562 -563 1574 -255 
C 1581 -139 1632 720 1632 1425 
C 1632 1739 1632 1809 1562 2175 
C 1498 2509 1491 2592 1485 2720 
z
" transform="scale(0.015625)"/>
       <path id="CMEX10-b" d="M 2118 -3584 
L 538 -7174 
C 499 -7258 499 -7290 499 -7296 
C 499 -7366 557 -7424 627 -7424 
C 710 -7424 730 -7373 768 -7290 
L 2349 -3706 
C 2387 -3622 2387 -3590 2387 -3584 
C 2387 -3578 2387 -3546 2349 -3462 
L 768 115 
C 723 218 704 256 627 256 
C 557 256 499 198 499 128 
C 499 122 499 90 538 6 
L 2118 -3584 
z
" transform="scale(0.015625)"/>
       <path id="CMR17-3d" d="M 4115 2017 
C 4211 2017 4307 2017 4307 2125 
C 4307 2240 4198 2240 4090 2240 
L 512 2240 
C 403 2240 294 2240 294 2125 
C 294 2017 390 2017 486 2017 
L 4115 2017 
z
M 4090 896 
C 4198 896 4307 896 4307 1011 
C 4307 1119 4211 1119 4115 1119 
L 486 1119 
C 390 1119 294 1119 294 1011 
C 294 896 403 896 512 896 
L 4090 896 
z
" transform="scale(0.015625)"/>
       <path id="CMMI12-6e" d="M 1318 1871 
C 1331 1910 1491 2229 1728 2433 
C 1894 2586 2112 2689 2362 2689 
C 2618 2689 2707 2497 2707 2242 
C 2707 1878 2445 1150 2317 805 
C 2259 651 2227 568 2227 453 
C 2227 166 2426 -64 2733 -64 
C 3328 -64 3552 875 3552 913 
C 3552 945 3526 971 3488 971 
C 3430 971 3424 952 3392 843 
C 3245 319 3002 64 2752 64 
C 2688 64 2586 64 2586 269 
C 2586 429 2656 621 2694 710 
C 2822 1063 3091 1780 3091 2145 
C 3091 2528 2867 2816 2381 2816 
C 1811 2816 1510 2415 1395 2255 
C 1376 2618 1114 2816 832 2816 
C 627 2816 486 2695 378 2478 
C 262 2248 173 1865 173 1839 
C 173 1814 198 1782 243 1782 
C 294 1782 301 1788 339 1935 
C 442 2325 557 2689 813 2689 
C 960 2689 1011 2586 1011 2395 
C 1011 2254 947 2005 902 1807 
L 723 1118 
C 698 996 627 709 595 594 
C 550 428 480 128 480 96 
C 480 6 550 -64 646 -64 
C 723 -64 813 -26 864 70 
C 877 102 934 326 966 453 
L 1107 1028 
L 1318 1871 
z
" transform="scale(0.015625)"/>
       <path id="CMMI12-67" d="M 2163 811 
C 2138 709 2125 683 2042 588 
C 1779 249 1510 128 1312 128 
C 1101 128 902 294 902 734 
C 902 1073 1094 1788 1235 2076 
C 1421 2433 1709 2689 1978 2689 
C 2400 2689 2483 2165 2483 2127 
L 2464 2037 
L 2163 811 
z
M 2560 2395 
C 2477 2580 2298 2816 1978 2816 
C 1280 2816 486 1941 486 990 
C 486 326 890 0 1299 0 
C 1638 0 1939 268 2054 396 
L 1914 -171 
C 1824 -516 1786 -674 1555 -894 
C 1293 -1152 1050 -1152 909 -1152 
C 717 -1152 557 -1139 397 -1089 
C 602 -1033 653 -858 653 -789 
C 653 -689 576 -588 435 -588 
C 282 -588 115 -714 115 -922 
C 115 -1180 378 -1280 922 -1280 
C 1747 -1280 2176 -753 2259 -410 
L 2970 2435 
C 2989 2511 2989 2524 2989 2536 
C 2989 2625 2918 2695 2822 2695 
C 2669 2695 2579 2567 2560 2395 
z
" transform="scale(0.015625)"/>
       <path id="CMEX10-50" d="M 2694 -3418 
L 422 -6227 
C 371 -6291 365 -6304 365 -6330 
C 365 -6400 422 -6400 538 -6400 
L 5843 -6400 
L 6394 -4806 
L 6234 -4806 
C 6074 -5286 5645 -5677 5101 -5862 
C 4998 -5894 4557 -6048 3616 -6048 
L 896 -6048 
L 3117 -3302 
C 3162 -3245 3174 -3226 3174 -3200 
C 3174 -3174 3168 -3168 3130 -3110 
L 1050 -256 
L 3584 -256 
C 4314 -256 5786 -301 6234 -1498 
L 6394 -1498 
L 5843 0 
L 538 0 
C 365 0 358 -6 358 -205 
L 2694 -3418 
z
" transform="scale(0.015625)"/>
       <path id="CMMI12-69" d="M 1811 913 
C 1811 945 1786 971 1747 971 
C 1690 971 1683 952 1651 843 
C 1485 262 1222 64 1011 64 
C 934 64 845 83 845 275 
C 845 447 922 639 992 830 
L 1440 2018 
C 1459 2069 1504 2184 1504 2305 
C 1504 2574 1312 2816 998 2816 
C 410 2816 173 1890 173 1839 
C 173 1814 198 1782 243 1782 
C 301 1782 307 1807 333 1896 
C 486 2428 730 2682 979 2682 
C 1037 2682 1146 2682 1146 2478 
C 1146 2312 1062 2101 1011 1961 
L 563 773 
C 525 671 486 568 486 453 
C 486 166 685 -64 992 -64 
C 1581 -64 1811 869 1811 913 
z
M 1760 4013 
C 1760 4109 1683 4224 1542 4224 
C 1395 4224 1229 4083 1229 3917 
C 1229 3758 1363 3707 1440 3707 
C 1613 3707 1760 3873 1760 4013 
z
" transform="scale(0.015625)"/>
       <path id="CMEX10-c" d="M 928 -3738 
C 928 -3840 928 -3974 1062 -3974 
C 1203 -3974 1203 -3846 1203 -3738 
L 1203 -102 
C 1203 0 1203 134 1069 134 
C 928 134 928 6 928 -102 
L 928 -3738 
z
" transform="scale(0.015625)"/>
       <path id="CMEX10-44" d="M 3027 -11104 
C 3066 -11200 3091 -11258 3194 -11258 
C 3258 -11258 3341 -11206 3341 -11104 
C 3341 -11072 3334 -11059 3302 -10982 
L 1030 -5504 
L 3302 -19 
C 3334 58 3341 70 3341 102 
C 3341 205 3258 256 3194 256 
C 3091 256 3066 198 3027 102 
L 755 -5376 
C 723 -5459 717 -5466 717 -5504 
C 717 -5536 723 -5549 755 -5626 
L 3027 -11104 
z
" transform="scale(0.015625)"/>
       <path id="CMEX10-45" d="M 602 -10982 
C 570 -11059 563 -11072 563 -11104 
C 563 -11206 646 -11258 710 -11258 
C 813 -11258 838 -11200 877 -11104 
L 3149 -5626 
C 3181 -5549 3187 -5536 3187 -5504 
C 3187 -5466 3181 -5459 3149 -5376 
L 877 102 
C 838 198 813 256 710 256 
C 646 256 563 205 563 102 
C 563 70 570 58 602 -19 
L 2874 -5498 
L 602 -10982 
z
" transform="scale(0.015625)"/>
       <path id="CMMI12-65" d="M 1146 1479 
C 1318 1479 1754 1479 2061 1595 
C 2547 1783 2592 2158 2592 2274 
C 2592 2558 2349 2816 1926 2816 
C 1254 2816 288 2210 288 1073 
C 288 402 672 -64 1254 -64 
C 2125 -64 2675 609 2675 692 
C 2675 730 2637 762 2611 762 
C 2592 762 2586 756 2528 699 
C 2118 159 1510 64 1267 64 
C 902 64 710 350 710 822 
C 710 911 710 1071 806 1479 
L 1146 1479 
z
M 838 1600 
C 1114 2592 1722 2689 1926 2689 
C 2208 2689 2400 2522 2400 2277 
C 2400 1600 1376 1600 1107 1600 
L 838 1600 
z
" transform="scale(0.015625)"/>
       <path id="CMMI12-78" d="M 3034 2606 
C 2829 2567 2752 2414 2752 2293 
C 2752 2139 2874 2088 2963 2088 
C 3155 2088 3290 2254 3290 2427 
C 3290 2695 2982 2816 2714 2816 
C 2323 2816 2106 2433 2048 2312 
C 1901 2816 1504 2816 1389 2816 
C 736 2816 390 1980 390 1839 
C 390 1814 416 1782 461 1782 
C 512 1782 525 1820 538 1846 
C 755 2555 1184 2689 1370 2689 
C 1658 2689 1715 2420 1715 2267 
C 1715 2127 1677 1980 1600 1673 
L 1382 798 
C 1286 415 1101 64 762 64 
C 730 64 570 64 435 147 
C 666 192 717 383 717 460 
C 717 588 621 664 499 664 
C 346 664 179 530 179 326 
C 179 57 480 -64 755 -64 
C 1062 -64 1280 179 1414 441 
C 1517 64 1837 -64 2074 -64 
C 2726 -64 3072 773 3072 913 
C 3072 945 3046 971 3008 971 
C 2950 971 2944 939 2925 888 
C 2752 326 2381 64 2093 64 
C 1869 64 1747 230 1747 492 
C 1747 632 1773 734 1875 1156 
L 2099 2024 
C 2195 2408 2413 2689 2707 2689 
C 2720 2689 2899 2689 3034 2606 
z
" transform="scale(0.015625)"/>
       <path id="CMMI12-61" d="M 1926 760 
C 1894 651 1894 639 1805 517 
C 1664 338 1382 64 1082 64 
C 819 64 672 300 672 677 
C 672 1028 870 1743 992 2012 
C 1210 2459 1510 2689 1760 2689 
C 2182 2689 2266 2165 2266 2114 
C 2266 2108 2246 2024 2240 2012 
L 1926 760 
z
M 2336 2395 
C 2266 2561 2093 2816 1760 2816 
C 1037 2816 256 1884 256 939 
C 256 307 627 -64 1062 -64 
C 1414 -64 1715 211 1894 422 
C 1958 45 2259 -64 2451 -64 
C 2643 -64 2797 51 2912 281 
C 3014 498 3104 888 3104 913 
C 3104 945 3078 971 3040 971 
C 2982 971 2976 939 2950 843 
C 2854 466 2733 64 2470 64 
C 2285 64 2272 230 2272 358 
C 2272 505 2291 575 2349 824 
C 2394 984 2426 1124 2477 1309 
C 2714 2267 2771 2497 2771 2535 
C 2771 2625 2701 2695 2605 2695 
C 2400 2695 2349 2472 2336 2395 
z
" transform="scale(0.015625)"/>
       <path id="CMMI12-63" d="M 2502 2431 
C 2381 2431 2323 2431 2234 2355 
C 2195 2323 2125 2227 2125 2125 
C 2125 1997 2221 1920 2342 1920 
C 2496 1920 2669 2044 2669 2292 
C 2669 2588 2374 2816 1933 2816 
C 1094 2816 256 1903 256 996 
C 256 441 602 -64 1254 -64 
C 2125 -64 2675 622 2675 706 
C 2675 744 2637 776 2611 776 
C 2592 776 2586 770 2528 713 
C 2118 162 1510 64 1267 64 
C 826 64 685 446 685 764 
C 685 988 794 1605 1024 2039 
C 1190 2338 1536 2682 1939 2682 
C 2022 2682 2374 2682 2502 2431 
z
" transform="scale(0.015625)"/>
       <path id="CMSY10-0" d="M 4218 1472 
C 4326 1472 4442 1472 4442 1600 
C 4442 1728 4326 1728 4218 1728 
L 755 1728 
C 646 1728 531 1728 531 1600 
C 531 1472 646 1472 755 1472 
L 4218 1472 
z
" transform="scale(0.015625)"/>
       <path id="CMMI12-51" d="M 2726 45 
C 3827 490 4646 1663 4646 2829 
C 4646 3893 3955 4544 3059 4544 
C 1690 4544 307 3062 307 1573 
C 307 561 973 -128 1901 -128 
C 2118 -128 2330 -96 2534 -33 
C 2496 -411 2496 -442 2496 -562 
C 2496 -744 2496 -1216 3008 -1216 
C 3770 -1216 4051 -37 4051 2 
C 4051 39 4026 64 3994 64 
C 3955 64 3942 34 3923 -36 
C 3782 -429 3450 -654 3168 -654 
C 2842 -654 2758 -435 2726 45 
z
M 1574 77 
C 1069 252 826 787 826 1379 
C 826 1831 992 2689 1414 3340 
C 1888 4075 2522 4404 3021 4404 
C 3686 4404 4134 3862 4134 3024 
C 4134 2547 3910 948 2707 240 
C 2675 571 2586 960 2163 960 
C 1818 960 1523 609 1523 291 
C 1523 220 1549 123 1574 77 
z
M 2547 156 
C 2317 52 2118 12 1939 12 
C 1875 12 1651 12 1651 298 
C 1651 533 1875 832 2163 832 
C 2483 832 2554 611 2554 286 
C 2554 246 2554 194 2547 156 
z
" transform="scale(0.015625)"/>
       <path id="CMMI12-43" d="M 4781 4423 
C 4781 4480 4736 4480 4723 4480 
C 4710 4480 4685 4480 4634 4416 
L 4192 3882 
C 3968 4264 3616 4480 3136 4480 
C 1754 4480 320 3088 320 1595 
C 320 533 1069 -128 2003 -128 
C 2515 -128 2963 88 3334 400 
C 3891 863 4058 1481 4058 1531 
C 4058 1588 4006 1588 3987 1588 
C 3930 1588 3923 1550 3910 1524 
C 3616 534 2752 57 2112 57 
C 1434 57 845 489 845 1391 
C 845 1595 909 2700 1632 3532 
C 1984 3939 2586 4295 3194 4295 
C 3898 4295 4211 3717 4211 3068 
C 4211 2903 4192 2764 4192 2738 
C 4192 2681 4256 2681 4275 2681 
C 4346 2681 4352 2687 4378 2801 
L 4781 4423 
z
" transform="scale(0.015625)"/>
       <path id="CMMI12-6b" d="M 1798 4257 
C 1805 4283 1818 4321 1818 4352 
C 1818 4416 1754 4416 1741 4416 
C 1734 4416 1504 4393 1389 4377 
C 1280 4377 1184 4358 1069 4358 
C 915 4345 870 4339 870 4224 
C 870 4160 934 4160 998 4160 
C 1325 4160 1325 4103 1325 4040 
C 1325 4015 1325 4002 1293 3888 
L 378 248 
C 352 152 352 140 352 101 
C 352 -38 461 -64 525 -64 
C 704 -64 742 77 794 275 
L 1094 1469 
C 1555 1418 1830 1226 1830 920 
C 1830 881 1830 856 1811 760 
C 1786 664 1786 588 1786 556 
C 1786 185 2029 -64 2355 -64 
C 2650 -64 2803 204 2854 294 
C 2989 530 3072 888 3072 913 
C 3072 945 3046 971 3008 971 
C 2950 971 2944 945 2918 843 
C 2829 511 2694 64 2368 64 
C 2240 64 2157 128 2157 370 
C 2157 492 2182 632 2208 728 
C 2234 843 2234 849 2234 926 
C 2234 1303 1894 1514 1306 1590 
C 1536 1731 1766 1980 1856 2076 
C 2221 2484 2470 2689 2765 2689 
C 2912 2689 2950 2650 2995 2612 
C 2758 2586 2669 2420 2669 2293 
C 2669 2139 2790 2088 2880 2088 
C 3053 2088 3206 2235 3206 2440 
C 3206 2625 3059 2816 2771 2816 
C 2419 2816 2131 2567 1677 2056 
C 1613 1980 1376 1737 1139 1648 
L 1798 4257 
z
" transform="scale(0.015625)"/>
       <path id="CMMI12-3b" d="M 1248 -31 
C 1248 343 1126 619 864 619 
C 659 619 557 453 557 313 
C 557 172 653 0 870 0 
C 954 0 1024 26 1082 83 
C 1094 96 1101 96 1107 96 
C 1120 96 1120 5 1120 -27 
C 1120 -240 1082 -659 710 -1080 
C 640 -1157 640 -1170 640 -1183 
C 640 -1216 672 -1248 704 -1248 
C 755 -1248 1248 -771 1248 -31 
z
" transform="scale(0.015625)"/>
      </defs>
      <use xlink:href="#CMR17-16" transform="translate(15.614556 25.175672) scale(0.996264)"/>
      <use xlink:href="#CMR17-1" transform="scale(0.996264)"/>
      <use xlink:href="#CMEX10-a" transform="translate(93.523995 80.698084) scale(0.996264)"/>
      <use xlink:href="#CMMI12-1b" transform="translate(140.569985 0) scale(0.996264)"/>
      <use xlink:href="#CMSY10-79" transform="translate(199.590038 36.153639) scale(0.697382)"/>
      <use xlink:href="#CMMI12-1b" transform="translate(231.082993 0) scale(0.996264)"/>
      <use xlink:href="#CMEX10-b" transform="translate(290.103047 80.698084) scale(0.996264)"/>
      <use xlink:href="#CMR17-3d" transform="translate(364.823045 0) scale(0.996264)"/>
      <use xlink:href="#CMR17-31" transform="translate(482.616625 39.226102) scale(0.697382)"/>
      <use xlink:href="#CMMI12-6e" transform="translate(465.407356 -34.355253) scale(0.697382)"/>
      <use xlink:href="#CMMI12-67" transform="translate(506.168199 -44.815949) scale(0.498132)"/>
      <use xlink:href="#CMEX10-50" transform="translate(549.60898 74.720454) scale(0.996264)"/>
      <use xlink:href="#CMMI12-6e" transform="translate(654.770532 54.462286) scale(0.697382)"/>
      <use xlink:href="#CMMI12-67" transform="translate(695.531375 44.001589) scale(0.498132)"/>
      <use xlink:href="#CMMI12-69" transform="translate(654.770532 -27.34372) scale(0.697382)"/>
      <use xlink:href="#CMR17-3d" transform="translate(678.065439 -27.34372) scale(0.697382)"/>
      <use xlink:href="#CMR17-30" transform="translate(728.265571 -27.34372) scale(0.697382)"/>
      <use xlink:href="#CMEX10-c" transform="translate(777.35129 144.459498) scale(0.996264)"/>
      <use xlink:href="#CMEX10-c" transform="translate(777.35129 84.683049) scale(0.996264)"/>
      <use xlink:href="#CMEX10-c" transform="translate(777.35129 24.9066) scale(0.996264)"/>
      <use xlink:href="#CMEX10-c" transform="translate(777.35129 -34.869848) scale(0.996264)"/>
      <use xlink:href="#CMEX10-44" transform="translate(810.560146 110.586308) scale(0.996264)"/>
      <use xlink:href="#CMMI12-1b" transform="translate(871.443087 0) scale(0.996264)"/>
      <use xlink:href="#CMSY10-79" transform="translate(930.463141 47.875931) scale(0.697382)"/>
      <use xlink:href="#CMMI12-69" transform="translate(926.888548 -27.34372) scale(0.697382)"/>
      <use xlink:href="#CMMI12-1b" transform="translate(961.956095 0) scale(0.996264)"/>
      <use xlink:href="#CMMI12-69" transform="translate(1017.401556 -14.943915) scale(0.697382)"/>
      <use xlink:href="#CMEX10-45" transform="translate(1041.194596 110.586308) scale(0.996264)"/>
      <use xlink:href="#CMMI12-65" transform="translate(1102.077536 -68.244982) scale(0.697382)"/>
      <use xlink:href="#CMMI12-78" transform="translate(1133.725793 -68.244982) scale(0.697382)"/>
      <use xlink:href="#CMMI12-61" transform="translate(1172.529452 -68.244982) scale(0.697382)"/>
      <use xlink:href="#CMMI12-63" transform="translate(1208.374799 -68.244982) scale(0.697382)"/>
      <use xlink:href="#CMMI12-74" transform="translate(1237.76293 -68.244982) scale(0.697382)"/>
      <use xlink:href="#CMR17-28" transform="translate(1279.523777 0) scale(0.996264)"/>
      <use xlink:href="#CMMI12-74" transform="translate(1314.804545 0) scale(0.996264)"/>
      <use xlink:href="#CMR17-29" transform="translate(1350.030875 0) scale(0.996264)"/>
      <use xlink:href="#CMSY10-0" transform="translate(1407.45085 0) scale(0.996264)"/>
      <use xlink:href="#CMEX10-44" transform="translate(1507.077524 110.586308) scale(0.996264)"/>
      <use xlink:href="#CMMI12-1b" transform="translate(1567.960465 0) scale(0.996264)"/>
      <use xlink:href="#CMSY10-79" transform="translate(1626.980519 47.875931) scale(0.697382)"/>
      <use xlink:href="#CMMI12-69" transform="translate(1623.405926 -27.34372) scale(0.697382)"/>
      <use xlink:href="#CMMI12-1b" transform="translate(1658.473473 0) scale(0.996264)"/>
      <use xlink:href="#CMMI12-69" transform="translate(1713.918934 -14.943915) scale(0.697382)"/>
      <use xlink:href="#CMEX10-45" transform="translate(1737.711974 110.586308) scale(0.996264)"/>
      <use xlink:href="#CMMI12-51" transform="translate(1798.594914 -68.244982) scale(0.697382)"/>
      <use xlink:href="#CMMI12-43" transform="translate(1852.676943 -68.244982) scale(0.697382)"/>
      <use xlink:href="#CMR17-28" transform="translate(1923.642025 0) scale(0.996264)"/>
      <use xlink:href="#CMMI12-6b" transform="translate(1958.922793 0) scale(0.996264)"/>
      <use xlink:href="#CMMI12-3b" transform="translate(2013.001993 0) scale(0.996264)"/>
      <use xlink:href="#CMMI12-74" transform="translate(2056.703576 0) scale(0.996264)"/>
      <use xlink:href="#CMR17-29" transform="translate(2091.929906 0) scale(0.996264)"/>
      <use xlink:href="#CMEX10-c" transform="translate(2127.210674 144.459498) scale(0.996264)"/>
      <use xlink:href="#CMEX10-c" transform="translate(2127.210674 84.683049) scale(0.996264)"/>
      <use xlink:href="#CMEX10-c" transform="translate(2127.210674 24.9066) scale(0.996264)"/>
      <use xlink:href="#CMEX10-c" transform="translate(2127.210674 -34.869848) scale(0.996264)"/>
      <path d="M 465.407356 22.914133 
L 531.809061 22.914133 
L 531.809061 26.899083 
L 465.407356 26.899083 
L 465.407356 22.914133 
z
"/>
     </g>
    </g>
   </g>
   <g id="line2d_26">
    <path d="M 497.34226 324.572056 
L 537.6935 320.292961 
L 611.472801 288.128559 
L 707.013452 225.672662 
L 820.152178 162.622894 
" clip-path="url(#p4fa21cc7fd)" style="fill: none; stroke: #00ffe5; stroke-width: 1.5; stroke-linecap: square"/>
    <defs>
     <path id="m4305cf2560" d="M 0 -3 
L -3 3 
L 3 3 
z
" style="stroke: #00ffe5; stroke-linejoin: miter"/>
    </defs>
    <g clip-path="url(#p4fa21cc7fd)">
     <use xlink:href="#m4305cf2560" x="497.34226" y="324.572056" style="fill: #00ffe5; stroke: #00ffe5; stroke-linejoin: miter"/>
     <use xlink:href="#m4305cf2560" x="537.6935" y="320.292961" style="fill: #00ffe5; stroke: #00ffe5; stroke-linejoin: miter"/>
     <use xlink:href="#m4305cf2560" x="611.472801" y="288.128559" style="fill: #00ffe5; stroke: #00ffe5; stroke-linejoin: miter"/>
     <use xlink:href="#m4305cf2560" x="707.013452" y="225.672662" style="fill: #00ffe5; stroke: #00ffe5; stroke-linejoin: miter"/>
     <use xlink:href="#m4305cf2560" x="820.152178" y="162.622894" style="fill: #00ffe5; stroke: #00ffe5; stroke-linejoin: miter"/>
    </g>
   </g>
   <g id="line2d_27">
    <path d="M 497.34226 324.572056 
L 537.6935 322.674448 
L 611.472801 311.236783 
L 707.013452 285.709765 
L 820.152178 258.098183 
" clip-path="url(#p4fa21cc7fd)" style="fill: none; stroke: #e600ff; stroke-width: 1.5; stroke-linecap: square"/>
    <defs>
     <path id="m3048ddd4ec" d="M 0 -3 
L -3 3 
L 3 3 
z
" style="stroke: #e600ff; stroke-linejoin: miter"/>
    </defs>
    <g clip-path="url(#p4fa21cc7fd)">
     <use xlink:href="#m3048ddd4ec" x="497.34226" y="324.572056" style="fill: #e600ff; stroke: #e600ff; stroke-linejoin: miter"/>
     <use xlink:href="#m3048ddd4ec" x="537.6935" y="322.674448" style="fill: #e600ff; stroke: #e600ff; stroke-linejoin: miter"/>
     <use xlink:href="#m3048ddd4ec" x="611.472801" y="311.236783" style="fill: #e600ff; stroke: #e600ff; stroke-linejoin: miter"/>
     <use xlink:href="#m3048ddd4ec" x="707.013452" y="285.709765" style="fill: #e600ff; stroke: #e600ff; stroke-linejoin: miter"/>
     <use xlink:href="#m3048ddd4ec" x="820.152178" y="258.098183" style="fill: #e600ff; stroke: #e600ff; stroke-linejoin: miter"/>
    </g>
   </g>
   <g id="line2d_28">
    <path d="M 497.34226 324.572056 
L 537.6935 322.140073 
L 611.472801 315.510081 
L 707.013452 299.397922 
L 820.152178 281.888079 
" clip-path="url(#p4fa21cc7fd)" style="fill: none; stroke: #ffe500; stroke-width: 1.5; stroke-linecap: square"/>
    <defs>
     <path id="m80797943e3" d="M 0 -3 
L -3 3 
L 3 3 
z
" style="stroke: #ffe500; stroke-linejoin: miter"/>
    </defs>
    <g clip-path="url(#p4fa21cc7fd)">
     <use xlink:href="#m80797943e3" x="497.34226" y="324.572056" style="fill: #ffe500; stroke: #ffe500; stroke-linejoin: miter"/>
     <use xlink:href="#m80797943e3" x="537.6935" y="322.140073" style="fill: #ffe500; stroke: #ffe500; stroke-linejoin: miter"/>
     <use xlink:href="#m80797943e3" x="611.472801" y="315.510081" style="fill: #ffe500; stroke: #ffe500; stroke-linejoin: miter"/>
     <use xlink:href="#m80797943e3" x="707.013452" y="299.397922" style="fill: #ffe500; stroke: #ffe500; stroke-linejoin: miter"/>
     <use xlink:href="#m80797943e3" x="820.152178" y="281.888079" style="fill: #ffe500; stroke: #ffe500; stroke-linejoin: miter"/>
    </g>
   </g>
   <g id="patch_8">
    <path d="M 481.201765 339.84 
L 481.201765 7.2 
" style="fill: none; stroke: #000000; stroke-width: 0.8; stroke-linejoin: miter; stroke-linecap: square"/>
   </g>
   <g id="patch_9">
    <path d="M 836.292674 339.84 
L 836.292674 7.2 
" style="fill: none; stroke: #000000; stroke-width: 0.8; stroke-linejoin: miter; stroke-linecap: square"/>
   </g>
   <g id="patch_10">
    <path d="M 481.201765 339.84 
L 836.292674 339.84 
" style="fill: none; stroke: #000000; stroke-width: 0.8; stroke-linejoin: miter; stroke-linecap: square"/>
   </g>
   <g id="patch_11">
    <path d="M 481.201765 7.2 
L 836.292674 7.2 
" style="fill: none; stroke: #000000; stroke-width: 0.8; stroke-linejoin: miter; stroke-linecap: square"/>
   </g>
  </g>
  <g id="legend_1">
   <g id="line2d_29">
    <path d="M 286.764585 374.344255 
L 301.764585 374.344255 
L 316.764585 374.344255 
" style="fill: none; stroke: #00ffe5; stroke-width: 1.5; stroke-linecap: square"/>
   </g>
   <g id="text_27">
    <!-- k = 1 -->
    <g transform="translate(328.764585 379.594255) scale(0.15 -0.15)">
     <defs>
      <path id="CMSS17-6b" d="M 1696 1688 
L 2688 2739 
L 2074 2739 
L 954 1554 
L 954 4416 
L 480 4416 
L 480 0 
L 947 0 
L 947 892 
L 1376 1344 
L 2278 0 
L 2822 0 
L 1696 1688 
z
" transform="scale(0.015625)"/>
      <path id="CMSS17-3d" d="M 4147 2017 
C 4243 2017 4339 2017 4339 2125 
C 4339 2240 4230 2240 4122 2240 
L 550 2240 
C 442 2240 333 2240 333 2125 
C 333 2017 429 2017 525 2017 
L 4147 2017 
z
M 4122 896 
C 4230 896 4339 896 4339 1011 
C 4339 1119 4243 1119 4147 1119 
L 525 1119 
C 429 1119 333 1119 333 1011 
C 333 896 442 896 550 896 
L 4122 896 
z
" transform="scale(0.015625)"/>
      <path id="CMSS17-31" d="M 1818 4288 
L 1696 4288 
C 1350 3940 947 3890 538 3890 
L 538 3520 
C 723 3520 1024 3520 1325 3667 
L 1325 369 
L 570 369 
L 570 0 
L 2573 0 
L 2573 369 
L 1818 369 
L 1818 4288 
z
" transform="scale(0.015625)"/>
     </defs>
     <use xlink:href="#CMSS17-6b" transform="scale(0.996264)"/>
     <use xlink:href="#CMSS17-3d" transform="translate(76.831602 0) scale(0.996264)"/>
     <use xlink:href="#CMSS17-31" transform="translate(180.92865 0) scale(0.996264)"/>
    </g>
   </g>
   <g id="line2d_30">
    <path d="M 394.316644 374.344255 
L 409.316644 374.344255 
L 424.316644 374.344255 
" style="fill: none; stroke: #e600ff; stroke-width: 1.5; stroke-linecap: square"/>
   </g>
   <g id="text_28">
    <!-- k = 2 -->
    <g transform="translate(436.316644 379.594255) scale(0.15 -0.15)">
     <defs>
      <path id="CMSS17-32" d="M 1651 1357 
C 1830 1541 2099 1764 2285 1987 
C 2464 2204 2701 2511 2701 2957 
C 2701 3657 2227 4288 1421 4288 
C 787 4288 422 3893 250 3274 
L 499 2929 
C 640 3510 838 3880 1338 3880 
C 1888 3880 2195 3433 2195 2942 
C 2195 2355 1747 1901 1408 1563 
C 1030 1187 659 804 301 408 
L 301 0 
L 2701 0 
L 2701 433 
L 1613 433 
C 1536 433 1459 433 1382 433 
L 742 433 
L 742 439 
L 1651 1357 
z
" transform="scale(0.015625)"/>
     </defs>
     <use xlink:href="#CMSS17-6b" transform="scale(0.996264)"/>
     <use xlink:href="#CMSS17-3d" transform="translate(76.831602 0) scale(0.996264)"/>
     <use xlink:href="#CMSS17-32" transform="translate(180.92865 0) scale(0.996264)"/>
    </g>
   </g>
   <g id="line2d_31">
    <path d="M 501.868703 374.344255 
L 516.868703 374.344255 
L 531.868703 374.344255 
" style="fill: none; stroke: #ffe500; stroke-width: 1.5; stroke-linecap: square"/>
   </g>
   <g id="text_29">
    <!-- k = 3 -->
    <g transform="translate(543.868703 379.594255) scale(0.15 -0.15)">
     <defs>
      <path id="CMSS17-33" d="M 1005 2025 
L 1440 2025 
C 2042 2025 2214 1507 2214 1146 
C 2214 653 1933 267 1472 267 
C 1114 267 608 444 320 912 
C 275 691 275 678 250 526 
C 550 88 1037 -128 1485 -128 
C 2214 -128 2752 473 2752 1138 
C 2752 1638 2400 2057 1920 2215 
C 2304 2424 2586 2816 2586 3273 
C 2586 3805 2093 4229 1491 4229 
C 941 4229 512 3892 333 3530 
C 378 3468 493 3284 550 3189 
C 691 3562 1056 3840 1485 3840 
C 1843 3840 2080 3607 2080 3271 
C 2080 2923 1856 2543 1478 2455 
C 1453 2455 1056 2417 1005 2411 
L 1005 2025 
z
" transform="scale(0.015625)"/>
     </defs>
     <use xlink:href="#CMSS17-6b" transform="scale(0.996264)"/>
     <use xlink:href="#CMSS17-3d" transform="translate(76.831602 0) scale(0.996264)"/>
     <use xlink:href="#CMSS17-33" transform="translate(180.92865 0) scale(0.996264)"/>
    </g>
   </g>
  </g>
 </g>
 <defs>
  <clipPath id="p2c3b0fc04f">
   <rect x="55.092674" y="7.2" width="355.090909" height="332.64"/>
  </clipPath>
  <clipPath id="p4fa21cc7fd">
   <rect x="481.201765" y="7.2" width="355.090909" height="332.64"/>
  </clipPath>
 </defs>
</svg>
