<?xml version="1.0" encoding="utf-8" standalone="no"?>
<!DOCTYPE svg PUBLIC "-//W3C//DTD SVG 1.1//EN"
  "http://www.w3.org/Graphics/SVG/1.1/DTD/svg11.dtd">
<svg xmlns:xlink="http://www.w3.org/1999/xlink" width="397.217052pt" height="318.078939pt" viewBox="0 0 397.217052 318.078939" xmlns="http://www.w3.org/2000/svg" version="1.1">
 <metadata>
  <rdf:RDF xmlns:dc="http://purl.org/dc/elements/1.1/" xmlns:cc="http://creativecommons.org/ns#" xmlns:rdf="http://www.w3.org/1999/02/22-rdf-syntax-ns#">
   <cc:Work>
    <dc:type rdf:resource="http://purl.org/dc/dcmitype/StillImage"/>
    <dc:date>2025-11-04T12:40:32.988313</dc:date>
    <dc:format>image/svg+xml</dc:format>
    <dc:creator>
     <cc:Agent>
      <dc:title>Matplotlib v3.9.0, https://matplotlib.org/</dc:title>
     </cc:Agent>
    </dc:creator>
   </cc:Work>
  </rdf:RDF>
 </metadata>
 <defs>
  <style type="text/css">*{stroke-linejoin: round; stroke-linecap: butt}</style>
 </defs>
 <g id="figure_1">
  <g id="patch_1">
   <path d="M 0 318.078939 
L 397.217052 318.078939 
L 397.217052 0 
L 0 0 
L 0 318.078939 
z
" style="fill: none"/>
  </g>
  <g id="axes_1">
   <g id="patch_2">
    <path d="M 32.897052 273.312 
L 390.017052 273.312 
L 390.017052 7.2 
L 32.897052 7.2 
L 32.897052 273.312 
z
" style="fill: none"/>
   </g>
   <g id="matplotlib.axis_1">
    <g id="xtick_1">
     <g id="line2d_1">
      <defs>
       <path id="m1eca29940f" d="M 0 0 
L 0 3.5 
" style="stroke: #000000; stroke-width: 0.8"/>
      </defs>
      <g>
       <use xlink:href="#m1eca29940f" x="49.129779" y="273.312" style="stroke: #000000; stroke-width: 0.8"/>
      </g>
     </g>
     <g id="text_1">
      <!-- $\mathdefault{0}$ -->
      <g transform="translate(45.471661 290.689725) scale(0.15 -0.15)">
       <defs>
        <path id="CMR17-30" d="M 2688 2025 
C 2688 2416 2682 3080 2413 3591 
C 2176 4039 1798 4198 1466 4198 
C 1158 4198 768 4058 525 3597 
C 269 3118 243 2524 243 2025 
C 243 1661 250 1106 448 619 
C 723 -39 1216 -128 1466 -128 
C 1760 -128 2208 -7 2470 600 
C 2662 1042 2688 1559 2688 2025 
z
M 1466 -26 
C 1056 -26 813 325 723 812 
C 653 1188 653 1738 653 2096 
C 653 2588 653 2997 736 3387 
C 858 3929 1216 4096 1466 4096 
C 1728 4096 2067 3923 2189 3400 
C 2272 3036 2278 2607 2278 2096 
C 2278 1680 2278 1169 2202 792 
C 2067 95 1690 -26 1466 -26 
z
" transform="scale(0.015625)"/>
       </defs>
       <use xlink:href="#CMR17-30" transform="scale(0.996264)"/>
      </g>
     </g>
    </g>
    <g id="xtick_2">
     <g id="line2d_2">
      <g>
       <use xlink:href="#m1eca29940f" x="145.315169" y="273.312" style="stroke: #000000; stroke-width: 0.8"/>
      </g>
     </g>
     <g id="text_2">
      <!-- $\mathdefault{2}$ -->
      <g transform="translate(141.65705 290.689725) scale(0.15 -0.15)">
       <defs>
        <path id="CMR17-32" d="M 2669 989 
L 2554 989 
C 2490 536 2438 459 2413 420 
C 2381 369 1920 369 1830 369 
L 602 369 
C 832 619 1280 1072 1824 1597 
C 2214 1967 2669 2402 2669 3035 
C 2669 3790 2067 4224 1395 4224 
C 691 4224 262 3604 262 3030 
C 262 2780 448 2748 525 2748 
C 589 2748 781 2787 781 3010 
C 781 3207 614 3264 525 3264 
C 486 3264 448 3258 422 3245 
C 544 3790 915 4058 1306 4058 
C 1862 4058 2227 3617 2227 3035 
C 2227 2479 1901 2000 1536 1584 
L 262 146 
L 262 0 
L 2515 0 
L 2669 989 
z
" transform="scale(0.015625)"/>
       </defs>
       <use xlink:href="#CMR17-32" transform="scale(0.996264)"/>
      </g>
     </g>
    </g>
    <g id="xtick_3">
     <g id="line2d_3">
      <g>
       <use xlink:href="#m1eca29940f" x="241.500559" y="273.312" style="stroke: #000000; stroke-width: 0.8"/>
      </g>
     </g>
     <g id="text_3">
      <!-- $\mathdefault{4}$ -->
      <g transform="translate(237.84244 290.689725) scale(0.15 -0.15)">
       <defs>
        <path id="CMR17-34" d="M 2150 4122 
C 2150 4256 2144 4256 2029 4256 
L 128 1254 
L 128 1088 
L 1779 1088 
L 1779 457 
C 1779 224 1766 160 1318 160 
L 1197 160 
L 1197 0 
C 1402 0 1747 0 1965 0 
C 2182 0 2528 0 2733 0 
L 2733 160 
L 2611 160 
C 2163 160 2150 224 2150 457 
L 2150 1088 
L 2803 1088 
L 2803 1254 
L 2150 1254 
L 2150 4122 
z
M 1798 3703 
L 1798 1254 
L 256 1254 
L 1798 3703 
z
" transform="scale(0.015625)"/>
       </defs>
       <use xlink:href="#CMR17-34" transform="scale(0.996264)"/>
      </g>
     </g>
    </g>
    <g id="xtick_4">
     <g id="line2d_4">
      <g>
       <use xlink:href="#m1eca29940f" x="337.685948" y="273.312" style="stroke: #000000; stroke-width: 0.8"/>
      </g>
     </g>
     <g id="text_4">
      <!-- $\mathdefault{6}$ -->
      <g transform="translate(334.027829 290.689725) scale(0.15 -0.15)">
       <defs>
        <path id="CMR17-36" d="M 678 2176 
C 678 3690 1395 4032 1811 4032 
C 1946 4032 2272 4009 2400 3776 
C 2298 3776 2106 3776 2106 3553 
C 2106 3381 2246 3323 2336 3323 
C 2394 3323 2566 3348 2566 3560 
C 2566 3954 2246 4179 1805 4179 
C 1043 4179 243 3390 243 1984 
C 243 253 966 -128 1478 -128 
C 2099 -128 2688 427 2688 1283 
C 2688 2081 2170 2662 1517 2662 
C 1126 2662 838 2407 678 1960 
L 678 2176 
z
M 1478 25 
C 691 25 691 1200 691 1436 
C 691 1896 909 2560 1504 2560 
C 1613 2560 1926 2560 2138 2120 
C 2253 1870 2253 1609 2253 1289 
C 2253 944 2253 690 2118 434 
C 1978 171 1773 25 1478 25 
z
" transform="scale(0.015625)"/>
       </defs>
       <use xlink:href="#CMR17-36" transform="scale(0.996264)"/>
      </g>
     </g>
    </g>
    <g id="text_5">
     <!-- $\tilde{\gamma}_0 t$ -->
     <g transform="translate(202.155895 307.973194) scale(0.15 -0.15)">
      <defs>
       <path id="CMR17-7e" d="M 2400 4184 
C 2182 3980 2061 3865 1862 3865 
C 1722 3865 1626 3932 1491 4024 
C 1363 4111 1261 4184 1120 4184 
C 890 4184 730 4004 461 3718 
L 531 3648 
C 749 3850 870 3968 1069 3968 
C 1210 3968 1306 3900 1440 3808 
C 1568 3722 1670 3648 1811 3648 
C 2042 3648 2202 3828 2470 4114 
L 2400 4184 
z
" transform="scale(0.015625)"/>
       <path id="CMMI12-d" d="M 2419 760 
C 2406 1071 2394 1561 2150 2133 
C 2022 2452 1805 2788 1338 2788 
C 550 2788 122 1790 122 1625 
C 122 1567 166 1567 186 1567 
C 243 1567 243 1580 275 1663 
C 410 2057 819 2368 1261 2368 
C 2150 2368 2278 1383 2278 754 
C 2278 352 2234 220 2195 92 
C 2074 -302 1862 -1090 1862 -1268 
C 1862 -1319 1882 -1376 1933 -1376 
C 2029 -1376 2086 -1166 2157 -912 
C 2310 -353 2349 -73 2381 181 
C 2400 334 2765 1384 3270 2382 
C 3315 2483 3405 2655 3405 2674 
C 3405 2680 3398 2725 3341 2725 
C 3328 2725 3296 2725 3283 2699 
C 3270 2687 3046 2254 2854 1822 
C 2758 1606 2630 1320 2419 760 
z
" transform="scale(0.015625)"/>
       <path id="CMMI12-74" d="M 1286 2566 
L 1875 2566 
C 1997 2566 2061 2566 2061 2681 
C 2061 2752 2022 2752 1894 2752 
L 1331 2752 
L 1568 3692 
C 1594 3781 1594 3794 1594 3840 
C 1594 3943 1510 4000 1427 4000 
C 1376 4000 1229 3981 1178 3775 
L 928 2752 
L 326 2752 
C 198 2752 141 2752 141 2630 
C 141 2566 186 2566 307 2566 
L 877 2566 
L 454 881 
C 403 658 384 594 384 511 
C 384 211 595 -64 954 -64 
C 1600 -64 1946 868 1946 912 
C 1946 951 1920 970 1882 970 
C 1869 970 1843 970 1830 944 
C 1824 938 1818 931 1773 829 
C 1638 511 1344 64 973 64 
C 781 64 768 224 768 364 
C 768 370 768 492 787 568 
L 1286 2566 
z
" transform="scale(0.015625)"/>
      </defs>
      <use xlink:href="#CMR17-7e" transform="translate(5.164045 0.006461) scale(0.996264)"/>
      <use xlink:href="#CMMI12-d" transform="scale(0.996264)"/>
      <use xlink:href="#CMR17-30" transform="translate(50.599133 -14.943915) scale(0.697382)"/>
      <use xlink:href="#CMMI12-74" transform="translate(83.080447 0) scale(0.996264)"/>
     </g>
    </g>
   </g>
   <g id="matplotlib.axis_2">
    <g id="ytick_1">
     <g id="line2d_5">
      <defs>
       <path id="m1b8456ef98" d="M 0 0 
L -3.5 0 
" style="stroke: #000000; stroke-width: 0.8"/>
      </defs>
      <g>
       <use xlink:href="#m1b8456ef98" x="32.897052" y="261.357716" style="stroke: #000000; stroke-width: 0.8"/>
      </g>
     </g>
     <g id="text_6">
      <!-- $\mathdefault{0.0}$ -->
      <g transform="translate(7.2 266.546578) scale(0.15 -0.15)">
       <defs>
        <path id="CMMI12-3a" d="M 1178 307 
C 1178 492 1024 619 870 619 
C 685 619 557 466 557 313 
C 557 128 710 0 864 0 
C 1050 0 1178 153 1178 307 
z
" transform="scale(0.015625)"/>
       </defs>
       <use xlink:href="#CMR17-30" transform="scale(0.996264)"/>
       <use xlink:href="#CMMI12-3a" transform="translate(45.690477 0) scale(0.996264)"/>
       <use xlink:href="#CMR17-30" transform="translate(72.787654 0) scale(0.996264)"/>
      </g>
     </g>
    </g>
    <g id="ytick_2">
     <g id="line2d_6">
      <g>
       <use xlink:href="#m1b8456ef98" x="32.897052" y="212.91703" style="stroke: #000000; stroke-width: 0.8"/>
      </g>
     </g>
     <g id="text_7">
      <!-- $\mathdefault{0.2}$ -->
      <g transform="translate(7.2 218.105892) scale(0.15 -0.15)">
       <use xlink:href="#CMR17-30" transform="scale(0.996264)"/>
       <use xlink:href="#CMMI12-3a" transform="translate(45.690477 0) scale(0.996264)"/>
       <use xlink:href="#CMR17-32" transform="translate(72.787654 0) scale(0.996264)"/>
      </g>
     </g>
    </g>
    <g id="ytick_3">
     <g id="line2d_7">
      <g>
       <use xlink:href="#m1b8456ef98" x="32.897052" y="164.476343" style="stroke: #000000; stroke-width: 0.8"/>
      </g>
     </g>
     <g id="text_8">
      <!-- $\mathdefault{0.4}$ -->
      <g transform="translate(7.2 169.665206) scale(0.15 -0.15)">
       <use xlink:href="#CMR17-30" transform="scale(0.996264)"/>
       <use xlink:href="#CMMI12-3a" transform="translate(45.690477 0) scale(0.996264)"/>
       <use xlink:href="#CMR17-34" transform="translate(72.787654 0) scale(0.996264)"/>
      </g>
     </g>
    </g>
    <g id="ytick_4">
     <g id="line2d_8">
      <g>
       <use xlink:href="#m1b8456ef98" x="32.897052" y="116.035657" style="stroke: #000000; stroke-width: 0.8"/>
      </g>
     </g>
     <g id="text_9">
      <!-- $\mathdefault{0.6}$ -->
      <g transform="translate(7.2 121.224519) scale(0.15 -0.15)">
       <use xlink:href="#CMR17-30" transform="scale(0.996264)"/>
       <use xlink:href="#CMMI12-3a" transform="translate(45.690477 0) scale(0.996264)"/>
       <use xlink:href="#CMR17-36" transform="translate(72.787654 0) scale(0.996264)"/>
      </g>
     </g>
    </g>
    <g id="ytick_5">
     <g id="line2d_9">
      <g>
       <use xlink:href="#m1b8456ef98" x="32.897052" y="67.59497" style="stroke: #000000; stroke-width: 0.8"/>
      </g>
     </g>
     <g id="text_10">
      <!-- $\mathdefault{0.8}$ -->
      <g transform="translate(7.2 72.783833) scale(0.15 -0.15)">
       <defs>
        <path id="CMR17-38" d="M 1741 2264 
C 2144 2467 2554 2773 2554 3263 
C 2554 3841 1990 4179 1472 4179 
C 890 4179 378 3759 378 3180 
C 378 3021 416 2747 666 2505 
C 730 2442 998 2251 1171 2130 
C 883 1983 211 1634 211 934 
C 211 279 838 -128 1459 -128 
C 2144 -128 2720 362 2720 1010 
C 2720 1590 2330 1857 2074 2029 
L 1741 2264 
z
M 902 2822 
C 851 2854 595 3051 595 3351 
C 595 3739 998 4032 1459 4032 
C 1965 4032 2336 3676 2336 3262 
C 2336 2669 1670 2331 1638 2331 
C 1632 2331 1626 2331 1574 2370 
L 902 2822 
z
M 2080 1519 
C 2176 1449 2483 1240 2483 851 
C 2483 381 2010 25 1472 25 
C 890 25 448 438 448 940 
C 448 1443 838 1862 1280 2060 
L 2080 1519 
z
" transform="scale(0.015625)"/>
       </defs>
       <use xlink:href="#CMR17-30" transform="scale(0.996264)"/>
       <use xlink:href="#CMMI12-3a" transform="translate(45.690477 0) scale(0.996264)"/>
       <use xlink:href="#CMR17-38" transform="translate(72.787654 0) scale(0.996264)"/>
      </g>
     </g>
    </g>
    <g id="ytick_6">
     <g id="line2d_10">
      <g>
       <use xlink:href="#m1b8456ef98" x="32.897052" y="19.154284" style="stroke: #000000; stroke-width: 0.8"/>
      </g>
     </g>
     <g id="text_11">
      <!-- $\mathdefault{1.0}$ -->
      <g transform="translate(7.2 24.343146) scale(0.15 -0.15)">
       <defs>
        <path id="CMR17-31" d="M 1702 4058 
C 1702 4192 1696 4192 1606 4192 
C 1357 3916 979 3827 621 3827 
C 602 3827 570 3827 563 3808 
C 557 3795 557 3782 557 3648 
C 755 3648 1088 3686 1344 3839 
L 1344 461 
C 1344 236 1331 160 781 160 
L 589 160 
L 589 0 
C 896 0 1216 0 1523 0 
C 1830 0 2150 0 2458 0 
L 2458 160 
L 2266 160 
C 1715 160 1702 230 1702 458 
L 1702 4058 
z
" transform="scale(0.015625)"/>
       </defs>
       <use xlink:href="#CMR17-31" transform="scale(0.996264)"/>
       <use xlink:href="#CMMI12-3a" transform="translate(45.690477 0) scale(0.996264)"/>
       <use xlink:href="#CMR17-30" transform="translate(72.787654 0) scale(0.996264)"/>
      </g>
     </g>
    </g>
   </g>
   <g id="line2d_11">
    <path d="M 49.129779 140.256 
L 55.755382 124.670453 
L 62.380985 111.090676 
L 69.006588 99.258575 
L 75.632191 88.949251 
L 82.257794 79.966737 
L 88.883397 72.140268 
L 95.509 65.321059 
L 102.134603 59.379473 
L 108.760206 54.202561 
L 115.385809 49.691907 
L 122.011412 45.761768 
L 128.637015 42.337429 
L 135.262618 39.3538 
L 141.888221 36.754155 
L 148.513824 34.489083 
L 155.139427 32.515515 
L 161.76503 30.795947 
L 168.390633 29.297689 
L 175.016236 27.992255 
L 181.641839 26.854824 
L 188.267442 25.863779 
L 194.893045 25.000282 
L 201.518648 24.247913 
L 208.144251 23.592372 
L 214.769854 23.0212 
L 221.395457 22.523535 
L 228.02106 22.089919 
L 234.646663 21.712109 
L 241.272266 21.382922 
L 247.897869 21.0961 
L 254.523471 20.846192 
L 261.149074 20.628447 
L 267.774677 20.438725 
L 274.40028 20.27342 
L 281.025883 20.12939 
L 287.651486 20.003895 
L 294.277089 19.894552 
L 300.902692 19.799281 
L 307.528295 19.716271 
L 314.153898 19.643945 
L 320.779501 19.580926 
L 327.405104 19.526018 
L 334.030707 19.478177 
L 340.65631 19.436492 
L 347.281913 19.400173 
L 353.907516 19.368529 
L 360.533119 19.340957 
L 367.158722 19.316933 
L 373.784325 19.296 
" clip-path="url(#p1a073c2be5)" style="fill: none; stroke: #ff0080; stroke-width: 1.5; stroke-linecap: square"/>
   </g>
   <g id="line2d_12">
    <defs>
     <path id="m89634ab853" d="M -3 3 
L 3 3 
L 3 -3 
L -3 -3 
z
" style="stroke: #ff0080; stroke-opacity: 0.6; stroke-linejoin: miter"/>
    </defs>
    <g clip-path="url(#p1a073c2be5)">
     <use xlink:href="#m89634ab853" x="55.755382" y="124.670376" style="fill: #ff0080; fill-opacity: 0.6; stroke: #ff0080; stroke-opacity: 0.6; stroke-linejoin: miter"/>
     <use xlink:href="#m89634ab853" x="82.257794" y="79.966707" style="fill: #ff0080; fill-opacity: 0.6; stroke: #ff0080; stroke-opacity: 0.6; stroke-linejoin: miter"/>
     <use xlink:href="#m89634ab853" x="108.760206" y="54.2025" style="fill: #ff0080; fill-opacity: 0.6; stroke: #ff0080; stroke-opacity: 0.6; stroke-linejoin: miter"/>
     <use xlink:href="#m89634ab853" x="135.262618" y="39.353733" style="fill: #ff0080; fill-opacity: 0.6; stroke: #ff0080; stroke-opacity: 0.6; stroke-linejoin: miter"/>
     <use xlink:href="#m89634ab853" x="161.76503" y="30.795896" style="fill: #ff0080; fill-opacity: 0.6; stroke: #ff0080; stroke-opacity: 0.6; stroke-linejoin: miter"/>
     <use xlink:href="#m89634ab853" x="188.267442" y="25.863731" style="fill: #ff0080; fill-opacity: 0.6; stroke: #ff0080; stroke-opacity: 0.6; stroke-linejoin: miter"/>
     <use xlink:href="#m89634ab853" x="214.769854" y="23.021161" style="fill: #ff0080; fill-opacity: 0.6; stroke: #ff0080; stroke-opacity: 0.6; stroke-linejoin: miter"/>
     <use xlink:href="#m89634ab853" x="241.272266" y="21.382893" style="fill: #ff0080; fill-opacity: 0.6; stroke: #ff0080; stroke-opacity: 0.6; stroke-linejoin: miter"/>
     <use xlink:href="#m89634ab853" x="267.774677" y="20.438706" style="fill: #ff0080; fill-opacity: 0.6; stroke: #ff0080; stroke-opacity: 0.6; stroke-linejoin: miter"/>
     <use xlink:href="#m89634ab853" x="294.277089" y="19.894539" style="fill: #ff0080; fill-opacity: 0.6; stroke: #ff0080; stroke-opacity: 0.6; stroke-linejoin: miter"/>
     <use xlink:href="#m89634ab853" x="320.779501" y="19.580917" style="fill: #ff0080; fill-opacity: 0.6; stroke: #ff0080; stroke-opacity: 0.6; stroke-linejoin: miter"/>
     <use xlink:href="#m89634ab853" x="347.281913" y="19.400167" style="fill: #ff0080; fill-opacity: 0.6; stroke: #ff0080; stroke-opacity: 0.6; stroke-linejoin: miter"/>
    </g>
   </g>
   <g id="line2d_13">
    <defs>
     <path id="md6f26883b6" d="M 0 -3 
L -3 3 
L 3 3 
z
" style="stroke: #ff0080; stroke-linejoin: miter"/>
    </defs>
    <g clip-path="url(#p1a073c2be5)">
     <use xlink:href="#md6f26883b6" x="69.006588" y="99.258523" style="fill: #ff0080; stroke: #ff0080; stroke-linejoin: miter"/>
     <use xlink:href="#md6f26883b6" x="95.509" y="65.321013" style="fill: #ff0080; stroke: #ff0080; stroke-linejoin: miter"/>
     <use xlink:href="#md6f26883b6" x="122.011412" y="45.761701" style="fill: #ff0080; stroke: #ff0080; stroke-linejoin: miter"/>
     <use xlink:href="#md6f26883b6" x="148.513824" y="34.489021" style="fill: #ff0080; stroke: #ff0080; stroke-linejoin: miter"/>
     <use xlink:href="#md6f26883b6" x="175.016236" y="27.992201" style="fill: #ff0080; stroke: #ff0080; stroke-linejoin: miter"/>
     <use xlink:href="#md6f26883b6" x="201.518648" y="24.247869" style="fill: #ff0080; stroke: #ff0080; stroke-linejoin: miter"/>
     <use xlink:href="#md6f26883b6" x="228.02106" y="22.089886" style="fill: #ff0080; stroke: #ff0080; stroke-linejoin: miter"/>
     <use xlink:href="#md6f26883b6" x="254.523471" y="20.846169" style="fill: #ff0080; stroke: #ff0080; stroke-linejoin: miter"/>
     <use xlink:href="#md6f26883b6" x="281.025883" y="20.129373" style="fill: #ff0080; stroke: #ff0080; stroke-linejoin: miter"/>
     <use xlink:href="#md6f26883b6" x="307.528295" y="19.71626" style="fill: #ff0080; stroke: #ff0080; stroke-linejoin: miter"/>
     <use xlink:href="#md6f26883b6" x="334.030707" y="19.47817" style="fill: #ff0080; stroke: #ff0080; stroke-linejoin: miter"/>
     <use xlink:href="#md6f26883b6" x="360.533119" y="19.34095" style="fill: #ff0080; stroke: #ff0080; stroke-linejoin: miter"/>
    </g>
   </g>
   <g id="line2d_14">
    <path d="M 49.129779 140.256 
L 55.755382 148.317086 
L 62.380985 155.841606 
L 69.006588 162.865259 
L 75.632191 169.421385 
L 82.257794 175.541103 
L 88.883397 181.253463 
L 95.509 186.585582 
L 102.134603 191.56277 
L 108.760206 196.208652 
L 115.385809 200.545283 
L 122.011412 204.593247 
L 128.637015 208.371759 
L 135.262618 211.898755 
L 141.888221 215.190978 
L 148.513824 218.264055 
L 155.139427 221.132573 
L 161.76503 223.810149 
L 168.390633 226.309493 
L 175.016236 228.642468 
L 181.641839 230.82015 
L 188.267442 232.852875 
L 194.893045 234.750292 
L 201.518648 236.521408 
L 208.144251 238.17463 
L 214.769854 239.717806 
L 221.395457 241.158261 
L 228.02106 242.502832 
L 234.646663 243.757902 
L 241.272266 244.929429 
L 247.897869 246.022974 
L 254.523471 247.043727 
L 261.149074 247.996533 
L 267.774677 248.885917 
L 274.40028 249.716099 
L 281.025883 250.49102 
L 287.651486 251.214359 
L 294.277089 251.889549 
L 300.902692 252.519795 
L 307.528295 253.108088 
L 314.153898 253.657223 
L 320.779501 254.169804 
L 327.405104 254.648265 
L 334.030707 255.094878 
L 340.65631 255.511762 
L 347.281913 255.900896 
L 353.907516 256.264128 
L 360.533119 256.603181 
L 367.158722 256.919665 
L 373.784325 257.215083 
" clip-path="url(#p1a073c2be5)" style="fill: none; stroke: #ffff00; stroke-width: 1.5; stroke-linecap: square"/>
   </g>
   <g id="line2d_15">
    <defs>
     <path id="m16772dcb45" d="M -3 3 
L 3 3 
L 3 -3 
L -3 -3 
z
" style="stroke: #ffff00; stroke-opacity: 0.6; stroke-linejoin: miter"/>
    </defs>
    <g clip-path="url(#p1a073c2be5)">
     <use xlink:href="#m16772dcb45" x="55.755382" y="148.317105" style="fill: #ffff00; fill-opacity: 0.6; stroke: #ffff00; stroke-opacity: 0.6; stroke-linejoin: miter"/>
     <use xlink:href="#m16772dcb45" x="82.257794" y="175.541117" style="fill: #ffff00; fill-opacity: 0.6; stroke: #ffff00; stroke-opacity: 0.6; stroke-linejoin: miter"/>
     <use xlink:href="#m16772dcb45" x="108.760206" y="196.208664" style="fill: #ffff00; fill-opacity: 0.6; stroke: #ffff00; stroke-opacity: 0.6; stroke-linejoin: miter"/>
     <use xlink:href="#m16772dcb45" x="135.262618" y="211.898764" style="fill: #ffff00; fill-opacity: 0.6; stroke: #ffff00; stroke-opacity: 0.6; stroke-linejoin: miter"/>
     <use xlink:href="#m16772dcb45" x="161.76503" y="223.810157" style="fill: #ffff00; fill-opacity: 0.6; stroke: #ffff00; stroke-opacity: 0.6; stroke-linejoin: miter"/>
     <use xlink:href="#m16772dcb45" x="188.267442" y="232.852882" style="fill: #ffff00; fill-opacity: 0.6; stroke: #ffff00; stroke-opacity: 0.6; stroke-linejoin: miter"/>
     <use xlink:href="#m16772dcb45" x="214.769854" y="239.717813" style="fill: #ffff00; fill-opacity: 0.6; stroke: #ffff00; stroke-opacity: 0.6; stroke-linejoin: miter"/>
     <use xlink:href="#m16772dcb45" x="241.272266" y="244.929435" style="fill: #ffff00; fill-opacity: 0.6; stroke: #ffff00; stroke-opacity: 0.6; stroke-linejoin: miter"/>
     <use xlink:href="#m16772dcb45" x="267.774677" y="248.885922" style="fill: #ffff00; fill-opacity: 0.6; stroke: #ffff00; stroke-opacity: 0.6; stroke-linejoin: miter"/>
     <use xlink:href="#m16772dcb45" x="294.277089" y="251.889553" style="fill: #ffff00; fill-opacity: 0.6; stroke: #ffff00; stroke-opacity: 0.6; stroke-linejoin: miter"/>
     <use xlink:href="#m16772dcb45" x="320.779501" y="254.169808" style="fill: #ffff00; fill-opacity: 0.6; stroke: #ffff00; stroke-opacity: 0.6; stroke-linejoin: miter"/>
     <use xlink:href="#m16772dcb45" x="347.281913" y="255.9009" style="fill: #ffff00; fill-opacity: 0.6; stroke: #ffff00; stroke-opacity: 0.6; stroke-linejoin: miter"/>
    </g>
   </g>
   <g id="line2d_16">
    <defs>
     <path id="mf81f55f1d6" d="M 0 -3 
L -3 3 
L 3 3 
z
" style="stroke: #ffff00; stroke-linejoin: miter"/>
    </defs>
    <g clip-path="url(#p1a073c2be5)">
     <use xlink:href="#mf81f55f1d6" x="69.006588" y="162.865275" style="fill: #ffff00; stroke: #ffff00; stroke-linejoin: miter"/>
     <use xlink:href="#mf81f55f1d6" x="95.509" y="186.585595" style="fill: #ffff00; stroke: #ffff00; stroke-linejoin: miter"/>
     <use xlink:href="#mf81f55f1d6" x="122.011412" y="204.593257" style="fill: #ffff00; stroke: #ffff00; stroke-linejoin: miter"/>
     <use xlink:href="#mf81f55f1d6" x="148.513824" y="218.264063" style="fill: #ffff00; stroke: #ffff00; stroke-linejoin: miter"/>
     <use xlink:href="#mf81f55f1d6" x="175.016236" y="228.642476" style="fill: #ffff00; stroke: #ffff00; stroke-linejoin: miter"/>
     <use xlink:href="#mf81f55f1d6" x="201.518648" y="236.521415" style="fill: #ffff00; stroke: #ffff00; stroke-linejoin: miter"/>
     <use xlink:href="#mf81f55f1d6" x="228.02106" y="242.502838" style="fill: #ffff00; stroke: #ffff00; stroke-linejoin: miter"/>
     <use xlink:href="#mf81f55f1d6" x="254.523471" y="247.043732" style="fill: #ffff00; stroke: #ffff00; stroke-linejoin: miter"/>
     <use xlink:href="#mf81f55f1d6" x="281.025883" y="250.491025" style="fill: #ffff00; stroke: #ffff00; stroke-linejoin: miter"/>
     <use xlink:href="#mf81f55f1d6" x="307.528295" y="253.108092" style="fill: #ffff00; stroke: #ffff00; stroke-linejoin: miter"/>
     <use xlink:href="#mf81f55f1d6" x="334.030707" y="255.094882" style="fill: #ffff00; stroke: #ffff00; stroke-linejoin: miter"/>
     <use xlink:href="#mf81f55f1d6" x="360.533119" y="256.603184" style="fill: #ffff00; stroke: #ffff00; stroke-linejoin: miter"/>
    </g>
   </g>
   <g id="line2d_17">
    <path d="M 49.129779 140.256 
L 55.755382 148.317086 
L 62.380985 155.841606 
L 69.006588 162.865259 
L 75.632191 169.421385 
L 82.257794 175.541103 
L 88.883397 181.253463 
L 95.509 186.585582 
L 102.134603 191.56277 
L 108.760206 196.208652 
L 115.385809 200.545283 
L 122.011412 204.593247 
L 128.637015 208.371759 
L 135.262618 211.898755 
L 141.888221 215.190978 
L 148.513824 218.264055 
L 155.139427 221.132573 
L 161.76503 223.810149 
L 168.390633 226.309493 
L 175.016236 228.642468 
L 181.641839 230.82015 
L 188.267442 232.852875 
L 194.893045 234.750292 
L 201.518648 236.521408 
L 208.144251 238.17463 
L 214.769854 239.717806 
L 221.395457 241.158261 
L 228.02106 242.502832 
L 234.646663 243.757902 
L 241.272266 244.929429 
L 247.897869 246.022974 
L 254.523471 247.043727 
L 261.149074 247.996533 
L 267.774677 248.885917 
L 274.40028 249.716099 
L 281.025883 250.49102 
L 287.651486 251.214359 
L 294.277089 251.889549 
L 300.902692 252.519795 
L 307.528295 253.108088 
L 314.153898 253.657223 
L 320.779501 254.169804 
L 327.405104 254.648265 
L 334.030707 255.094878 
L 340.65631 255.511762 
L 347.281913 255.900896 
L 353.907516 256.264128 
L 360.533119 256.603181 
L 367.158722 256.919665 
L 373.784325 257.215083 
" clip-path="url(#p1a073c2be5)" style="fill: none; stroke: #00ff7f; stroke-width: 1.5; stroke-linecap: square"/>
   </g>
   <g id="line2d_18">
    <defs>
     <path id="mbc330e57df" d="M -3 3 
L 3 3 
L 3 -3 
L -3 -3 
z
" style="stroke: #00ff7f; stroke-opacity: 0.6; stroke-linejoin: miter"/>
    </defs>
    <g clip-path="url(#p1a073c2be5)">
     <use xlink:href="#mbc330e57df" x="55.755382" y="148.317105" style="fill: #00ff7f; fill-opacity: 0.6; stroke: #00ff7f; stroke-opacity: 0.6; stroke-linejoin: miter"/>
     <use xlink:href="#mbc330e57df" x="82.257794" y="175.541117" style="fill: #00ff7f; fill-opacity: 0.6; stroke: #00ff7f; stroke-opacity: 0.6; stroke-linejoin: miter"/>
     <use xlink:href="#mbc330e57df" x="108.760206" y="196.208664" style="fill: #00ff7f; fill-opacity: 0.6; stroke: #00ff7f; stroke-opacity: 0.6; stroke-linejoin: miter"/>
     <use xlink:href="#mbc330e57df" x="135.262618" y="211.898764" style="fill: #00ff7f; fill-opacity: 0.6; stroke: #00ff7f; stroke-opacity: 0.6; stroke-linejoin: miter"/>
     <use xlink:href="#mbc330e57df" x="161.76503" y="223.810157" style="fill: #00ff7f; fill-opacity: 0.6; stroke: #00ff7f; stroke-opacity: 0.6; stroke-linejoin: miter"/>
     <use xlink:href="#mbc330e57df" x="188.267442" y="232.852882" style="fill: #00ff7f; fill-opacity: 0.6; stroke: #00ff7f; stroke-opacity: 0.6; stroke-linejoin: miter"/>
     <use xlink:href="#mbc330e57df" x="214.769854" y="239.717813" style="fill: #00ff7f; fill-opacity: 0.6; stroke: #00ff7f; stroke-opacity: 0.6; stroke-linejoin: miter"/>
     <use xlink:href="#mbc330e57df" x="241.272266" y="244.929435" style="fill: #00ff7f; fill-opacity: 0.6; stroke: #00ff7f; stroke-opacity: 0.6; stroke-linejoin: miter"/>
     <use xlink:href="#mbc330e57df" x="267.774677" y="248.885922" style="fill: #00ff7f; fill-opacity: 0.6; stroke: #00ff7f; stroke-opacity: 0.6; stroke-linejoin: miter"/>
     <use xlink:href="#mbc330e57df" x="294.277089" y="251.889553" style="fill: #00ff7f; fill-opacity: 0.6; stroke: #00ff7f; stroke-opacity: 0.6; stroke-linejoin: miter"/>
     <use xlink:href="#mbc330e57df" x="320.779501" y="254.169808" style="fill: #00ff7f; fill-opacity: 0.6; stroke: #00ff7f; stroke-opacity: 0.6; stroke-linejoin: miter"/>
     <use xlink:href="#mbc330e57df" x="347.281913" y="255.9009" style="fill: #00ff7f; fill-opacity: 0.6; stroke: #00ff7f; stroke-opacity: 0.6; stroke-linejoin: miter"/>
    </g>
   </g>
   <g id="line2d_19">
    <defs>
     <path id="m78548f819a" d="M 0 -3 
L -3 3 
L 3 3 
z
" style="stroke: #00ff7f; stroke-linejoin: miter"/>
    </defs>
    <g clip-path="url(#p1a073c2be5)">
     <use xlink:href="#m78548f819a" x="69.006588" y="162.865275" style="fill: #00ff7f; stroke: #00ff7f; stroke-linejoin: miter"/>
     <use xlink:href="#m78548f819a" x="95.509" y="186.585595" style="fill: #00ff7f; stroke: #00ff7f; stroke-linejoin: miter"/>
     <use xlink:href="#m78548f819a" x="122.011412" y="204.593257" style="fill: #00ff7f; stroke: #00ff7f; stroke-linejoin: miter"/>
     <use xlink:href="#m78548f819a" x="148.513824" y="218.264063" style="fill: #00ff7f; stroke: #00ff7f; stroke-linejoin: miter"/>
     <use xlink:href="#m78548f819a" x="175.016236" y="228.642476" style="fill: #00ff7f; stroke: #00ff7f; stroke-linejoin: miter"/>
     <use xlink:href="#m78548f819a" x="201.518648" y="236.521415" style="fill: #00ff7f; stroke: #00ff7f; stroke-linejoin: miter"/>
     <use xlink:href="#m78548f819a" x="228.02106" y="242.502838" style="fill: #00ff7f; stroke: #00ff7f; stroke-linejoin: miter"/>
     <use xlink:href="#m78548f819a" x="254.523471" y="247.043732" style="fill: #00ff7f; stroke: #00ff7f; stroke-linejoin: miter"/>
     <use xlink:href="#m78548f819a" x="281.025883" y="250.491025" style="fill: #00ff7f; stroke: #00ff7f; stroke-linejoin: miter"/>
     <use xlink:href="#m78548f819a" x="307.528295" y="253.108092" style="fill: #00ff7f; stroke: #00ff7f; stroke-linejoin: miter"/>
     <use xlink:href="#m78548f819a" x="334.030707" y="255.094882" style="fill: #00ff7f; stroke: #00ff7f; stroke-linejoin: miter"/>
     <use xlink:href="#m78548f819a" x="360.533119" y="256.603184" style="fill: #00ff7f; stroke: #00ff7f; stroke-linejoin: miter"/>
    </g>
   </g>
   <g id="line2d_20">
    <path d="M 49.129779 140.256 
L 55.755382 155.841547 
L 62.380985 169.421324 
L 69.006588 181.253425 
L 75.632191 191.562749 
L 82.257794 200.545263 
L 88.883397 208.371732 
L 95.509 215.190941 
L 102.134603 221.132527 
L 108.760206 226.309439 
L 115.385809 230.820093 
L 122.011412 234.750232 
L 128.637015 238.174571 
L 135.262618 241.1582 
L 141.888221 243.757845 
L 148.513824 246.022917 
L 155.139427 247.996485 
L 161.76503 249.716053 
L 168.390633 251.214311 
L 175.016236 252.519745 
L 181.641839 253.657176 
L 188.267442 254.648221 
L 194.893045 255.511718 
L 201.518648 256.264087 
L 208.144251 256.919628 
L 214.769854 257.4908 
L 221.395457 257.988465 
L 228.02106 258.422081 
L 234.646663 258.799891 
L 241.272266 259.129078 
L 247.897869 259.4159 
L 254.523471 259.665808 
L 261.149074 259.883553 
L 267.774677 260.073275 
L 274.40028 260.23858 
L 281.025883 260.38261 
L 287.651486 260.508105 
L 294.277089 260.617448 
L 300.902692 260.712719 
L 307.528295 260.795729 
L 314.153898 260.868055 
L 320.779501 260.931074 
L 327.405104 260.985982 
L 334.030707 261.033823 
L 340.65631 261.075508 
L 347.281913 261.111827 
L 353.907516 261.143471 
L 360.533119 261.171043 
L 367.158722 261.195067 
L 373.784325 261.216 
" clip-path="url(#p1a073c2be5)" style="fill: none; stroke: #0000ff; stroke-width: 1.5; stroke-linecap: square"/>
   </g>
   <g id="line2d_21">
    <defs>
     <path id="m5bada0fb8f" d="M -3 3 
L 3 3 
L 3 -3 
L -3 -3 
z
" style="stroke: #0000ff; stroke-opacity: 0.6; stroke-linejoin: miter"/>
    </defs>
    <g clip-path="url(#p1a073c2be5)">
     <use xlink:href="#m5bada0fb8f" x="55.755382" y="155.841624" style="fill: #0000ff; fill-opacity: 0.6; stroke: #0000ff; stroke-opacity: 0.6; stroke-linejoin: miter"/>
     <use xlink:href="#m5bada0fb8f" x="82.257794" y="200.545293" style="fill: #0000ff; fill-opacity: 0.6; stroke: #0000ff; stroke-opacity: 0.6; stroke-linejoin: miter"/>
     <use xlink:href="#m5bada0fb8f" x="108.760206" y="226.3095" style="fill: #0000ff; fill-opacity: 0.6; stroke: #0000ff; stroke-opacity: 0.6; stroke-linejoin: miter"/>
     <use xlink:href="#m5bada0fb8f" x="135.262618" y="241.158267" style="fill: #0000ff; fill-opacity: 0.6; stroke: #0000ff; stroke-opacity: 0.6; stroke-linejoin: miter"/>
     <use xlink:href="#m5bada0fb8f" x="161.76503" y="249.716104" style="fill: #0000ff; fill-opacity: 0.6; stroke: #0000ff; stroke-opacity: 0.6; stroke-linejoin: miter"/>
     <use xlink:href="#m5bada0fb8f" x="188.267442" y="254.648269" style="fill: #0000ff; fill-opacity: 0.6; stroke: #0000ff; stroke-opacity: 0.6; stroke-linejoin: miter"/>
     <use xlink:href="#m5bada0fb8f" x="214.769854" y="257.490839" style="fill: #0000ff; fill-opacity: 0.6; stroke: #0000ff; stroke-opacity: 0.6; stroke-linejoin: miter"/>
     <use xlink:href="#m5bada0fb8f" x="241.272266" y="259.129107" style="fill: #0000ff; fill-opacity: 0.6; stroke: #0000ff; stroke-opacity: 0.6; stroke-linejoin: miter"/>
     <use xlink:href="#m5bada0fb8f" x="267.774677" y="260.073294" style="fill: #0000ff; fill-opacity: 0.6; stroke: #0000ff; stroke-opacity: 0.6; stroke-linejoin: miter"/>
     <use xlink:href="#m5bada0fb8f" x="294.277089" y="260.617461" style="fill: #0000ff; fill-opacity: 0.6; stroke: #0000ff; stroke-opacity: 0.6; stroke-linejoin: miter"/>
     <use xlink:href="#m5bada0fb8f" x="320.779501" y="260.931083" style="fill: #0000ff; fill-opacity: 0.6; stroke: #0000ff; stroke-opacity: 0.6; stroke-linejoin: miter"/>
     <use xlink:href="#m5bada0fb8f" x="347.281913" y="261.111833" style="fill: #0000ff; fill-opacity: 0.6; stroke: #0000ff; stroke-opacity: 0.6; stroke-linejoin: miter"/>
    </g>
   </g>
   <g id="line2d_22">
    <defs>
     <path id="m1fb9f58eba" d="M 0 -3 
L -3 3 
L 3 3 
z
" style="stroke: #0000ff; stroke-linejoin: miter"/>
    </defs>
    <g clip-path="url(#p1a073c2be5)">
     <use xlink:href="#m1fb9f58eba" x="69.006588" y="181.253477" style="fill: #0000ff; stroke: #0000ff; stroke-linejoin: miter"/>
     <use xlink:href="#m1fb9f58eba" x="95.509" y="215.190987" style="fill: #0000ff; stroke: #0000ff; stroke-linejoin: miter"/>
     <use xlink:href="#m1fb9f58eba" x="122.011412" y="234.750299" style="fill: #0000ff; stroke: #0000ff; stroke-linejoin: miter"/>
     <use xlink:href="#m1fb9f58eba" x="148.513824" y="246.022979" style="fill: #0000ff; stroke: #0000ff; stroke-linejoin: miter"/>
     <use xlink:href="#m1fb9f58eba" x="175.016236" y="252.519799" style="fill: #0000ff; stroke: #0000ff; stroke-linejoin: miter"/>
     <use xlink:href="#m1fb9f58eba" x="201.518648" y="256.264131" style="fill: #0000ff; stroke: #0000ff; stroke-linejoin: miter"/>
     <use xlink:href="#m1fb9f58eba" x="228.02106" y="258.422114" style="fill: #0000ff; stroke: #0000ff; stroke-linejoin: miter"/>
     <use xlink:href="#m1fb9f58eba" x="254.523471" y="259.665831" style="fill: #0000ff; stroke: #0000ff; stroke-linejoin: miter"/>
     <use xlink:href="#m1fb9f58eba" x="281.025883" y="260.382627" style="fill: #0000ff; stroke: #0000ff; stroke-linejoin: miter"/>
     <use xlink:href="#m1fb9f58eba" x="307.528295" y="260.79574" style="fill: #0000ff; stroke: #0000ff; stroke-linejoin: miter"/>
     <use xlink:href="#m1fb9f58eba" x="334.030707" y="261.03383" style="fill: #0000ff; stroke: #0000ff; stroke-linejoin: miter"/>
     <use xlink:href="#m1fb9f58eba" x="360.533119" y="261.17105" style="fill: #0000ff; stroke: #0000ff; stroke-linejoin: miter"/>
    </g>
   </g>
   <g id="line2d_23">
    <path clip-path="url(#p1a073c2be5)" style="fill: none; stroke: #000000; stroke-opacity: 0.2; stroke-width: 1.5; stroke-linecap: square"/>
   </g>
   <g id="line2d_24">
    <defs>
     <path id="m7907d6d569" d="M -3 3 
L 3 3 
L 3 -3 
L -3 -3 
z
" style="stroke: #000000; stroke-linejoin: miter"/>
    </defs>
    <g clip-path="url(#p1a073c2be5)"/>
   </g>
   <g id="line2d_25">
    <defs>
     <path id="m333cb142fc" d="M 0 -3 
L -3 3 
L 3 3 
z
" style="stroke: #000000; stroke-linejoin: miter"/>
    </defs>
    <g clip-path="url(#p1a073c2be5)"/>
   </g>
   <g id="patch_3">
    <path d="M 32.897052 273.312 
L 32.897052 7.2 
" style="fill: none; stroke: #000000; stroke-width: 0.8; stroke-linejoin: miter; stroke-linecap: square"/>
   </g>
   <g id="patch_4">
    <path d="M 390.017052 273.312 
L 390.017052 7.2 
" style="fill: none; stroke: #000000; stroke-width: 0.8; stroke-linejoin: miter; stroke-linecap: square"/>
   </g>
   <g id="patch_5">
    <path d="M 32.897052 273.312 
L 390.017052 273.312 
" style="fill: none; stroke: #000000; stroke-width: 0.8; stroke-linejoin: miter; stroke-linecap: square"/>
   </g>
   <g id="patch_6">
    <path d="M 32.897052 7.2 
L 390.017052 7.2 
" style="fill: none; stroke: #000000; stroke-width: 0.8; stroke-linejoin: miter; stroke-linecap: square"/>
   </g>
   <g id="legend_1">
    <g id="line2d_26">
     <path d="M 234.814049 117.897383 
L 249.814049 117.897383 
L 264.814049 117.897383 
" style="fill: none; stroke: #000000; stroke-opacity: 0.2; stroke-width: 1.5; stroke-linecap: square"/>
    </g>
    <g id="text_12">
     <!-- Master equation -->
     <g transform="translate(276.814049 123.147383) scale(0.15 -0.15)">
      <defs>
       <path id="CMSS17-4d" d="M 3194 2371 
L 2886 1473 
C 2835 1307 2662 791 2624 587 
L 2618 587 
C 2598 715 2560 849 2458 1174 
C 2400 1365 2336 1562 2272 1741 
L 1325 4416 
L 576 4416 
L 576 0 
L 1075 0 
L 1075 3900 
L 1082 3900 
C 1082 3894 1139 3613 1530 2499 
L 2374 96 
L 2848 96 
L 3610 2231 
C 3661 2378 3821 2843 3891 3066 
C 3955 3257 4115 3728 4154 3913 
L 4160 3913 
L 4160 0 
L 4666 0 
L 4666 4416 
L 3923 4416 
L 3194 2371 
z
" transform="scale(0.015625)"/>
       <path id="CMSS17-61" d="M 2406 1791 
C 2406 2392 1978 2808 1402 2808 
C 1120 2808 813 2757 461 2553 
L 499 2135 
C 659 2248 934 2432 1395 2432 
C 1722 2432 1920 2180 1920 1782 
L 1920 1536 
C 896 1536 256 1238 256 726 
C 256 461 416 -64 947 -64 
C 1043 -64 1562 -64 1933 217 
L 1933 -19 
L 2406 -19 
L 2406 1791 
z
M 1920 816 
C 1920 701 1920 548 1728 434 
C 1562 325 1350 325 1261 325 
C 941 325 723 511 723 744 
C 723 1211 1722 1211 1920 1211 
L 1920 816 
z
" transform="scale(0.015625)"/>
       <path id="CMSS17-73" d="M 2061 2627 
C 1683 2807 1389 2807 1197 2807 
C 742 2807 198 2648 198 2003 
C 198 1359 902 1218 1094 1179 
C 1389 1122 1715 1058 1715 740 
C 1715 337 1254 337 1171 337 
C 915 337 563 407 243 638 
L 166 210 
C 531 0 883 -64 1178 -64 
C 1965 -64 2163 416 2163 781 
C 2163 1094 1984 1305 1862 1401 
C 1651 1568 1574 1587 1050 1696 
C 960 1709 646 1779 646 2066 
C 646 2432 1050 2432 1139 2432 
C 1555 2432 1811 2303 1984 2208 
L 2061 2627 
z
" transform="scale(0.015625)"/>
       <path id="CMSS17-74" d="M 1069 2368 
L 1901 2368 
L 1901 2737 
L 1069 2737 
L 1069 3520 
L 614 3520 
L 614 2737 
L 109 2737 
L 109 2368 
L 602 2368 
L 602 749 
C 602 384 685 -64 1107 -64 
C 1427 -64 1722 25 2003 172 
L 1901 548 
C 1747 414 1562 337 1363 337 
C 1082 337 1069 696 1069 856 
L 1069 2368 
z
" transform="scale(0.015625)"/>
       <path id="CMSS17-65" d="M 2502 1377 
C 2502 1590 2490 2003 2285 2345 
C 2061 2713 1696 2816 1421 2816 
C 755 2816 192 2188 192 1375 
C 192 582 774 -64 1510 -64 
C 1798 -64 2150 19 2470 248 
C 2470 274 2458 414 2451 420 
C 2451 433 2432 630 2432 656 
C 2125 407 1773 325 1517 325 
C 1107 325 666 667 646 1377 
L 2502 1377 
z
M 698 1728 
C 781 2084 1062 2421 1421 2421 
C 1517 2421 1965 2421 2080 1728 
L 698 1728 
z
" transform="scale(0.015625)"/>
       <path id="CMSS17-72" d="M 954 1363 
C 954 1965 1395 2368 1958 2368 
L 1958 2789 
C 1549 2789 1165 2585 934 2253 
L 934 2758 
L 480 2758 
L 480 0 
L 954 0 
L 954 1363 
z
" transform="scale(0.015625)"/>
       <path id="CMSS17-71" d="M 2611 2816 
L 2138 2816 
L 2138 2428 
C 2112 2460 1818 2816 1318 2816 
C 736 2816 211 2228 211 1399 
C 211 633 653 -5 1229 -5 
C 1498 -5 1837 91 2125 365 
L 2125 -1216 
L 2611 -1216 
L 2611 2816 
z
M 2138 914 
C 2138 832 2138 718 1939 554 
C 1888 510 1747 384 1504 384 
C 1050 384 698 850 698 1399 
C 698 2011 1126 2415 1562 2415 
C 1926 2415 2138 2061 2138 1797 
L 2138 914 
z
" transform="scale(0.015625)"/>
       <path id="CMSS17-75" d="M 2618 2739 
L 2131 2739 
L 2131 972 
C 2131 498 1786 306 1421 306 
C 998 306 960 447 960 709 
L 960 2739 
L 474 2739 
L 474 678 
C 474 179 646 -64 1088 -64 
C 1306 -64 1798 -13 2144 306 
L 2144 0 
L 2618 0 
L 2618 2739 
z
" transform="scale(0.015625)"/>
       <path id="CMSS17-69" d="M 979 4183 
L 442 4183 
L 442 3648 
L 979 3648 
L 979 4183 
z
M 947 2739 
L 474 2739 
L 474 0 
L 947 0 
L 947 2739 
z
" transform="scale(0.015625)"/>
       <path id="CMSS17-6f" d="M 2829 1356 
C 2829 2176 2221 2816 1504 2816 
C 768 2816 173 2157 173 1356 
C 173 544 787 -64 1498 -64 
C 2227 -64 2829 563 2829 1356 
z
M 1504 337 
C 1050 337 659 709 659 1408 
C 659 2151 1114 2427 1498 2427 
C 1914 2427 2342 2126 2342 1408 
C 2342 683 1926 337 1504 337 
z
" transform="scale(0.015625)"/>
       <path id="CMSS17-6e" d="M 2618 1877 
C 2618 2283 2522 2816 1798 2816 
C 1389 2816 1120 2606 941 2389 
L 941 2758 
L 474 2758 
L 474 0 
L 960 0 
L 960 1559 
C 960 1964 1114 2428 1549 2428 
C 2112 2428 2131 2048 2131 1829 
L 2131 0 
L 2618 0 
L 2618 1877 
z
" transform="scale(0.015625)"/>
      </defs>
      <use xlink:href="#CMSS17-4d" transform="scale(0.996264)"/>
      <use xlink:href="#CMSS17-61" transform="translate(81.67603 0) scale(0.996264)"/>
      <use xlink:href="#CMSS17-73" transform="translate(126.597951 0) scale(0.996264)"/>
      <use xlink:href="#CMSS17-74" transform="translate(162.511493 0) scale(0.996264)"/>
      <use xlink:href="#CMSS17-65" transform="translate(196.343059 0) scale(0.996264)"/>
      <use xlink:href="#CMSS17-72" transform="translate(237.981881 0) scale(0.996264)"/>
      <use xlink:href="#CMSS17-65" transform="translate(301.120767 0) scale(0.996264)"/>
      <use xlink:href="#CMSS17-71" transform="translate(342.759589 0) scale(0.996264)"/>
      <use xlink:href="#CMSS17-75" transform="translate(390.964532 0) scale(0.996264)"/>
      <use xlink:href="#CMSS17-61" transform="translate(439.169475 0) scale(0.996264)"/>
      <use xlink:href="#CMSS17-74" transform="translate(484.091396 0) scale(0.996264)"/>
      <use xlink:href="#CMSS17-69" transform="translate(517.922962 0) scale(0.996264)"/>
      <use xlink:href="#CMSS17-6f" transform="translate(540.103685 0) scale(0.996264)"/>
      <use xlink:href="#CMSS17-6e" transform="translate(586.947309 0) scale(0.996264)"/>
     </g>
    </g>
    <g id="line2d_27">
     <g>
      <use xlink:href="#m7907d6d569" x="249.814049" y="138.803128" style="stroke: #000000; stroke-linejoin: miter"/>
     </g>
    </g>
    <g id="text_13">
     <!-- Kraus -->
     <g transform="translate(276.814049 144.053128) scale(0.15 -0.15)">
      <defs>
       <path id="CMSS17-4b" d="M 2234 2666 
L 3827 4416 
L 3213 4416 
L 1101 2106 
L 1101 4416 
L 563 4416 
L 563 0 
L 1101 0 
L 1101 1432 
L 1875 2278 
L 3315 0 
L 3910 0 
L 2234 2666 
z
" transform="scale(0.015625)"/>
      </defs>
      <use xlink:href="#CMSS17-4b" transform="scale(0.996264)"/>
      <use xlink:href="#CMSS17-72" transform="translate(64.820294 0) scale(0.996264)"/>
      <use xlink:href="#CMSS17-61" transform="translate(96.730066 0) scale(0.996264)"/>
      <use xlink:href="#CMSS17-75" transform="translate(141.651987 0) scale(0.996264)"/>
      <use xlink:href="#CMSS17-73" transform="translate(189.85693 0) scale(0.996264)"/>
     </g>
    </g>
    <g id="line2d_28">
     <g>
      <use xlink:href="#m333cb142fc" x="249.814049" y="159.708872" style="stroke: #000000; stroke-linejoin: miter"/>
     </g>
    </g>
    <g id="text_14">
     <!-- Quantum circuit -->
     <g transform="translate(276.814049 164.958872) scale(0.15 -0.15)">
      <defs>
       <path id="CMSS17-51" d="M 3200 202 
C 3981 833 4096 1689 4096 2174 
C 4096 3501 3219 4497 2214 4497 
C 1210 4497 333 3497 333 2178 
C 333 847 1222 -128 2214 -128 
C 2438 -128 2630 -77 2765 -26 
L 3302 -832 
L 3930 -832 
L 3200 202 
z
M 2528 324 
C 2438 293 2330 273 2214 273 
C 1523 273 858 993 858 2178 
C 858 3357 1517 4096 2214 4096 
C 2918 4096 3571 3350 3571 2178 
C 3571 1771 3507 1089 2950 566 
L 2490 1210 
L 1939 1210 
L 2528 324 
z
" transform="scale(0.015625)"/>
       <path id="CMSS17-6d" d="M 4288 1877 
C 4288 2308 4179 2816 3462 2816 
C 2982 2816 2694 2516 2566 2331 
C 2451 2670 2182 2816 1798 2816 
C 1363 2816 1088 2568 941 2389 
L 941 2758 
L 474 2758 
L 474 0 
L 960 0 
L 960 1559 
C 960 1939 1101 2428 1555 2428 
C 2138 2428 2138 2016 2138 1829 
L 2138 0 
L 2624 0 
L 2624 1559 
C 2624 1939 2765 2428 3219 2428 
C 3802 2428 3802 2016 3802 1829 
L 3802 0 
L 4288 0 
L 4288 1877 
z
" transform="scale(0.015625)"/>
       <path id="CMSS17-63" d="M 2464 2541 
C 2464 2585 2170 2714 2093 2739 
C 1882 2816 1613 2816 1542 2816 
C 710 2816 211 2093 211 1363 
C 211 595 768 -64 1517 -64 
C 1946 -64 2253 76 2502 242 
L 2464 664 
C 2189 453 1869 337 1523 337 
C 1024 337 698 774 698 1369 
C 698 1831 909 2414 1549 2414 
C 1901 2414 2099 2343 2394 2145 
L 2464 2541 
z
" transform="scale(0.015625)"/>
      </defs>
      <use xlink:href="#CMSS17-51" transform="scale(0.996264)"/>
      <use xlink:href="#CMSS17-75" transform="translate(69.024255 0) scale(0.996264)"/>
      <use xlink:href="#CMSS17-61" transform="translate(117.229198 0) scale(0.996264)"/>
      <use xlink:href="#CMSS17-6e" transform="translate(162.151119 0) scale(0.996264)"/>
      <use xlink:href="#CMSS17-74" transform="translate(210.356062 0) scale(0.996264)"/>
      <use xlink:href="#CMSS17-75" transform="translate(244.187629 0) scale(0.996264)"/>
      <use xlink:href="#CMSS17-6d" transform="translate(292.392572 0) scale(0.996264)"/>
      <use xlink:href="#CMSS17-63" transform="translate(397.850939 0) scale(0.996264)"/>
      <use xlink:href="#CMSS17-69" transform="translate(439.489761 0) scale(0.996264)"/>
      <use xlink:href="#CMSS17-72" transform="translate(461.670484 0) scale(0.996264)"/>
      <use xlink:href="#CMSS17-63" transform="translate(493.580257 0) scale(0.996264)"/>
      <use xlink:href="#CMSS17-75" transform="translate(535.219079 0) scale(0.996264)"/>
      <use xlink:href="#CMSS17-69" transform="translate(583.424022 0) scale(0.996264)"/>
      <use xlink:href="#CMSS17-74" transform="translate(605.604745 0) scale(0.996264)"/>
     </g>
    </g>
   </g>
  </g>
 </g>
 <defs>
  <clipPath id="p1a073c2be5">
   <rect x="32.897052" y="7.2" width="357.12" height="266.112"/>
  </clipPath>
 </defs>
</svg>
